<?xml version="1.0" encoding="UTF-8"?>
<svg xmlns="http://www.w3.org/2000/svg" xmlns:xlink="http://www.w3.org/1999/xlink" width="425pt" height="169pt" viewBox="0 0 425 169">
<defs>
<g>
<g id="glyph-0-0">
<path d="M 3.71875 0 L 2.84375 0 L 2.84375 -5.59375 C 2.632812 -5.394531 2.359375 -5.191406 2.015625 -4.984375 C 1.671875 -4.785156 1.363281 -4.640625 1.09375 -4.546875 L 1.09375 -5.390625 C 1.582031 -5.617188 2.007812 -5.894531 2.375 -6.21875 C 2.75 -6.550781 3.007812 -6.875 3.15625 -7.1875 L 3.71875 -7.1875 Z M 3.71875 0 "/>
</g>
<g id="glyph-0-1">
<path d="M 5.03125 -0.84375 L 5.03125 0 L 0.296875 0 C 0.296875 -0.207031 0.332031 -0.410156 0.40625 -0.609375 C 0.53125 -0.929688 0.722656 -1.25 0.984375 -1.5625 C 1.242188 -1.875 1.628906 -2.234375 2.140625 -2.640625 C 2.910156 -3.285156 3.429688 -3.789062 3.703125 -4.15625 C 3.984375 -4.53125 4.125 -4.882812 4.125 -5.21875 C 4.125 -5.570312 4 -5.863281 3.75 -6.09375 C 3.5 -6.332031 3.175781 -6.453125 2.78125 -6.453125 C 2.351562 -6.453125 2.007812 -6.328125 1.75 -6.078125 C 1.5 -5.828125 1.375 -5.476562 1.375 -5.03125 L 0.46875 -5.125 C 0.53125 -5.789062 0.757812 -6.300781 1.15625 -6.65625 C 1.5625 -7.007812 2.109375 -7.1875 2.796875 -7.1875 C 3.484375 -7.1875 4.023438 -6.992188 4.421875 -6.609375 C 4.828125 -6.234375 5.03125 -5.765625 5.03125 -5.203125 C 5.03125 -4.910156 4.96875 -4.625 4.84375 -4.34375 C 4.726562 -4.070312 4.535156 -3.78125 4.265625 -3.46875 C 3.992188 -3.164062 3.539062 -2.75 2.90625 -2.21875 C 2.382812 -1.78125 2.046875 -1.476562 1.890625 -1.3125 C 1.742188 -1.15625 1.625 -1 1.53125 -0.84375 Z M 5.03125 -0.84375 "/>
</g>
<g id="glyph-0-2">
<path d="M 0.421875 -1.890625 L 1.296875 -2 C 1.398438 -1.507812 1.570312 -1.148438 1.8125 -0.921875 C 2.050781 -0.703125 2.347656 -0.59375 2.703125 -0.59375 C 3.117188 -0.59375 3.46875 -0.734375 3.75 -1.015625 C 4.03125 -1.304688 4.171875 -1.664062 4.171875 -2.09375 C 4.171875 -2.5 4.039062 -2.832031 3.78125 -3.09375 C 3.519531 -3.351562 3.1875 -3.484375 2.78125 -3.484375 C 2.613281 -3.484375 2.40625 -3.453125 2.15625 -3.390625 L 2.25 -4.15625 C 2.3125 -4.15625 2.359375 -4.15625 2.390625 -4.15625 C 2.765625 -4.15625 3.101562 -4.25 3.40625 -4.4375 C 3.707031 -4.632812 3.859375 -4.9375 3.859375 -5.34375 C 3.859375 -5.664062 3.75 -5.929688 3.53125 -6.140625 C 3.3125 -6.359375 3.03125 -6.46875 2.6875 -6.46875 C 2.34375 -6.46875 2.054688 -6.359375 1.828125 -6.140625 C 1.597656 -5.929688 1.453125 -5.609375 1.390625 -5.171875 L 0.515625 -5.328125 C 0.617188 -5.921875 0.859375 -6.378906 1.234375 -6.703125 C 1.617188 -7.023438 2.09375 -7.1875 2.65625 -7.1875 C 3.050781 -7.1875 3.410156 -7.101562 3.734375 -6.9375 C 4.066406 -6.769531 4.316406 -6.539062 4.484375 -6.25 C 4.660156 -5.957031 4.75 -5.648438 4.75 -5.328125 C 4.75 -5.015625 4.664062 -4.734375 4.5 -4.484375 C 4.34375 -4.234375 4.097656 -4.03125 3.765625 -3.875 C 4.191406 -3.78125 4.519531 -3.578125 4.75 -3.265625 C 4.988281 -2.960938 5.109375 -2.578125 5.109375 -2.109375 C 5.109375 -1.484375 4.878906 -0.953125 4.421875 -0.515625 C 3.960938 -0.0859375 3.390625 0.125 2.703125 0.125 C 2.066406 0.125 1.539062 -0.0625 1.125 -0.4375 C 0.71875 -0.8125 0.484375 -1.296875 0.421875 -1.890625 Z M 0.421875 -1.890625 "/>
</g>
<g id="glyph-0-3">
<path d="M 3.234375 0 L 3.234375 -1.71875 L 0.125 -1.71875 L 0.125 -2.515625 L 3.390625 -7.15625 L 4.109375 -7.15625 L 4.109375 -2.515625 L 5.078125 -2.515625 L 5.078125 -1.71875 L 4.109375 -1.71875 L 4.109375 0 Z M 3.234375 -2.515625 L 3.234375 -5.75 L 0.984375 -2.515625 Z M 3.234375 -2.515625 "/>
</g>
<g id="glyph-0-4">
<path d="M 0.421875 -1.875 L 1.34375 -1.953125 C 1.40625 -1.503906 1.5625 -1.164062 1.8125 -0.9375 C 2.0625 -0.707031 2.363281 -0.59375 2.71875 -0.59375 C 3.132812 -0.59375 3.488281 -0.753906 3.78125 -1.078125 C 4.082031 -1.398438 4.234375 -1.820312 4.234375 -2.34375 C 4.234375 -2.84375 4.09375 -3.238281 3.8125 -3.53125 C 3.53125 -3.820312 3.160156 -3.96875 2.703125 -3.96875 C 2.421875 -3.96875 2.164062 -3.898438 1.9375 -3.765625 C 1.707031 -3.640625 1.523438 -3.476562 1.390625 -3.28125 L 0.578125 -3.390625 L 1.265625 -7.0625 L 4.828125 -7.0625 L 4.828125 -6.21875 L 1.96875 -6.21875 L 1.578125 -4.296875 C 2.015625 -4.597656 2.46875 -4.75 2.9375 -4.75 C 3.5625 -4.75 4.085938 -4.53125 4.515625 -4.09375 C 4.941406 -3.664062 5.15625 -3.109375 5.15625 -2.421875 C 5.15625 -1.773438 4.96875 -1.21875 4.59375 -0.75 C 4.132812 -0.164062 3.507812 0.125 2.71875 0.125 C 2.0625 0.125 1.523438 -0.0546875 1.109375 -0.421875 C 0.703125 -0.785156 0.472656 -1.269531 0.421875 -1.875 Z M 0.421875 -1.875 "/>
</g>
<g id="glyph-0-5">
<path d="M 0.9375 0 L 0.9375 -7.15625 L 1.875 -7.15625 L 1.875 0 Z M 0.9375 0 "/>
</g>
<g id="glyph-0-6">
<path d="M 0.65625 0 L 0.65625 -5.1875 L 1.453125 -5.1875 L 1.453125 -4.453125 C 1.828125 -5.015625 2.375 -5.296875 3.09375 -5.296875 C 3.40625 -5.296875 3.691406 -5.238281 3.953125 -5.125 C 4.222656 -5.019531 4.421875 -4.875 4.546875 -4.6875 C 4.679688 -4.507812 4.773438 -4.296875 4.828125 -4.046875 C 4.859375 -3.878906 4.875 -3.59375 4.875 -3.1875 L 4.875 0 L 4 0 L 4 -3.15625 C 4 -3.507812 3.960938 -3.773438 3.890625 -3.953125 C 3.828125 -4.128906 3.707031 -4.269531 3.53125 -4.375 C 3.351562 -4.488281 3.148438 -4.546875 2.921875 -4.546875 C 2.546875 -4.546875 2.21875 -4.425781 1.9375 -4.1875 C 1.664062 -3.945312 1.53125 -3.492188 1.53125 -2.828125 L 1.53125 0 Z M 0.65625 0 "/>
</g>
<g id="glyph-0-7">
<path d="M 0.875 0 L 0.875 -4.5 L 0.09375 -4.5 L 0.09375 -5.1875 L 0.875 -5.1875 L 0.875 -5.734375 C 0.875 -6.085938 0.90625 -6.347656 0.96875 -6.515625 C 1.050781 -6.742188 1.195312 -6.925781 1.40625 -7.0625 C 1.625 -7.207031 1.925781 -7.28125 2.3125 -7.28125 C 2.550781 -7.28125 2.820312 -7.25 3.125 -7.1875 L 3 -6.421875 C 2.8125 -6.453125 2.632812 -6.46875 2.46875 -6.46875 C 2.207031 -6.46875 2.019531 -6.410156 1.90625 -6.296875 C 1.800781 -6.191406 1.75 -5.984375 1.75 -5.671875 L 1.75 -5.1875 L 2.75 -5.1875 L 2.75 -4.5 L 1.75 -4.5 L 1.75 0 Z M 0.875 0 "/>
</g>
<g id="glyph-0-8">
<path d="M 0.328125 -2.59375 C 0.328125 -3.550781 0.597656 -4.265625 1.140625 -4.734375 C 1.578125 -5.109375 2.117188 -5.296875 2.765625 -5.296875 C 3.472656 -5.296875 4.050781 -5.0625 4.5 -4.59375 C 4.957031 -4.132812 5.1875 -3.492188 5.1875 -2.671875 C 5.1875 -2.003906 5.085938 -1.476562 4.890625 -1.09375 C 4.691406 -0.707031 4.398438 -0.40625 4.015625 -0.1875 C 3.628906 0.0195312 3.210938 0.125 2.765625 0.125 C 2.035156 0.125 1.445312 -0.109375 1 -0.578125 C 0.550781 -1.046875 0.328125 -1.71875 0.328125 -2.59375 Z M 1.234375 -2.59375 C 1.234375 -1.925781 1.378906 -1.425781 1.671875 -1.09375 C 1.960938 -0.769531 2.328125 -0.609375 2.765625 -0.609375 C 3.203125 -0.609375 3.5625 -0.773438 3.84375 -1.109375 C 4.132812 -1.441406 4.28125 -1.945312 4.28125 -2.625 C 4.28125 -3.257812 4.132812 -3.742188 3.84375 -4.078125 C 3.550781 -4.410156 3.191406 -4.578125 2.765625 -4.578125 C 2.328125 -4.578125 1.960938 -4.410156 1.671875 -4.078125 C 1.378906 -3.753906 1.234375 -3.257812 1.234375 -2.59375 Z M 1.234375 -2.59375 "/>
</g>
<g id="glyph-0-9">
<path d="M 0.65625 0 L 0.65625 -5.1875 L 1.4375 -5.1875 L 1.4375 -4.40625 C 1.644531 -4.769531 1.832031 -5.007812 2 -5.125 C 2.164062 -5.238281 2.351562 -5.296875 2.5625 -5.296875 C 2.863281 -5.296875 3.164062 -5.203125 3.46875 -5.015625 L 3.171875 -4.203125 C 2.953125 -4.328125 2.734375 -4.390625 2.515625 -4.390625 C 2.328125 -4.390625 2.15625 -4.332031 2 -4.21875 C 1.84375 -4.101562 1.734375 -3.941406 1.671875 -3.734375 C 1.578125 -3.421875 1.53125 -3.082031 1.53125 -2.71875 L 1.53125 0 Z M 0.65625 0 "/>
</g>
<g id="glyph-0-10">
<path d="M 0.65625 0 L 0.65625 -5.1875 L 1.453125 -5.1875 L 1.453125 -4.453125 C 1.609375 -4.710938 1.820312 -4.914062 2.09375 -5.0625 C 2.363281 -5.21875 2.671875 -5.296875 3.015625 -5.296875 C 3.398438 -5.296875 3.710938 -5.21875 3.953125 -5.0625 C 4.203125 -4.90625 4.378906 -4.679688 4.484375 -4.390625 C 4.890625 -4.992188 5.421875 -5.296875 6.078125 -5.296875 C 6.597656 -5.296875 6.992188 -5.15625 7.265625 -4.875 C 7.546875 -4.59375 7.6875 -4.15625 7.6875 -3.5625 L 7.6875 0 L 6.8125 0 L 6.8125 -3.265625 C 6.8125 -3.617188 6.78125 -3.875 6.71875 -4.03125 C 6.664062 -4.1875 6.5625 -4.3125 6.40625 -4.40625 C 6.257812 -4.5 6.085938 -4.546875 5.890625 -4.546875 C 5.523438 -4.546875 5.222656 -4.421875 4.984375 -4.171875 C 4.742188 -3.929688 4.625 -3.546875 4.625 -3.015625 L 4.625 0 L 3.734375 0 L 3.734375 -3.375 C 3.734375 -3.757812 3.660156 -4.050781 3.515625 -4.25 C 3.378906 -4.445312 3.148438 -4.546875 2.828125 -4.546875 C 2.578125 -4.546875 2.347656 -4.476562 2.140625 -4.34375 C 1.929688 -4.21875 1.773438 -4.03125 1.671875 -3.78125 C 1.578125 -3.53125 1.53125 -3.164062 1.53125 -2.6875 L 1.53125 0 Z M 0.65625 0 "/>
</g>
<g id="glyph-0-11">
<path d="M 4.046875 -0.640625 C 3.722656 -0.359375 3.410156 -0.160156 3.109375 -0.046875 C 2.804688 0.0664062 2.484375 0.125 2.140625 0.125 C 1.566406 0.125 1.125 -0.015625 0.8125 -0.296875 C 0.507812 -0.578125 0.359375 -0.9375 0.359375 -1.375 C 0.359375 -1.625 0.414062 -1.851562 0.53125 -2.0625 C 0.644531 -2.269531 0.796875 -2.4375 0.984375 -2.5625 C 1.171875 -2.695312 1.382812 -2.796875 1.625 -2.859375 C 1.789062 -2.898438 2.050781 -2.941406 2.40625 -2.984375 C 3.113281 -3.066406 3.632812 -3.171875 3.96875 -3.296875 C 3.96875 -3.410156 3.96875 -3.484375 3.96875 -3.515625 C 3.96875 -3.878906 3.882812 -4.132812 3.71875 -4.28125 C 3.5 -4.476562 3.164062 -4.578125 2.71875 -4.578125 C 2.3125 -4.578125 2.007812 -4.503906 1.8125 -4.359375 C 1.613281 -4.210938 1.46875 -3.957031 1.375 -3.59375 L 0.515625 -3.703125 C 0.585938 -4.078125 0.710938 -4.375 0.890625 -4.59375 C 1.078125 -4.820312 1.335938 -4.992188 1.671875 -5.109375 C 2.015625 -5.234375 2.410156 -5.296875 2.859375 -5.296875 C 3.296875 -5.296875 3.648438 -5.242188 3.921875 -5.140625 C 4.203125 -5.035156 4.40625 -4.90625 4.53125 -4.75 C 4.664062 -4.59375 4.757812 -4.394531 4.8125 -4.15625 C 4.84375 -4.007812 4.859375 -3.738281 4.859375 -3.34375 L 4.859375 -2.171875 C 4.859375 -1.359375 4.875 -0.84375 4.90625 -0.625 C 4.945312 -0.40625 5.023438 -0.195312 5.140625 0 L 4.21875 0 C 4.125 -0.1875 4.066406 -0.398438 4.046875 -0.640625 Z M 3.96875 -2.609375 C 3.644531 -2.472656 3.164062 -2.359375 2.53125 -2.265625 C 2.175781 -2.210938 1.921875 -2.15625 1.765625 -2.09375 C 1.617188 -2.03125 1.503906 -1.9375 1.421875 -1.8125 C 1.335938 -1.6875 1.296875 -1.546875 1.296875 -1.390625 C 1.296875 -1.160156 1.382812 -0.96875 1.5625 -0.8125 C 1.738281 -0.65625 2 -0.578125 2.34375 -0.578125 C 2.6875 -0.578125 2.988281 -0.648438 3.25 -0.796875 C 3.507812 -0.941406 3.703125 -1.144531 3.828125 -1.40625 C 3.921875 -1.601562 3.96875 -1.894531 3.96875 -2.28125 Z M 3.96875 -2.609375 "/>
</g>
<g id="glyph-0-12">
<path d="M 2.578125 -0.78125 L 2.703125 -0.015625 C 2.453125 0.0351562 2.234375 0.0625 2.046875 0.0625 C 1.722656 0.0625 1.472656 0.0117188 1.296875 -0.078125 C 1.117188 -0.179688 0.992188 -0.316406 0.921875 -0.484375 C 0.859375 -0.648438 0.828125 -0.992188 0.828125 -1.515625 L 0.828125 -4.5 L 0.171875 -4.5 L 0.171875 -5.1875 L 0.828125 -5.1875 L 0.828125 -6.46875 L 1.6875 -7 L 1.6875 -5.1875 L 2.578125 -5.1875 L 2.578125 -4.5 L 1.6875 -4.5 L 1.6875 -1.46875 C 1.6875 -1.21875 1.703125 -1.054688 1.734375 -0.984375 C 1.765625 -0.910156 1.816406 -0.851562 1.890625 -0.8125 C 1.960938 -0.769531 2.0625 -0.75 2.1875 -0.75 C 2.289062 -0.75 2.421875 -0.757812 2.578125 -0.78125 Z M 2.578125 -0.78125 "/>
</g>
<g id="glyph-0-13">
<path d="M 0.671875 -6.140625 L 0.671875 -7.15625 L 1.546875 -7.15625 L 1.546875 -6.140625 Z M 0.671875 0 L 0.671875 -5.1875 L 1.546875 -5.1875 L 1.546875 0 Z M 0.671875 0 "/>
</g>
<g id="glyph-0-14">
<path d="M 0.3125 -1.546875 L 1.171875 -1.6875 C 1.222656 -1.332031 1.359375 -1.0625 1.578125 -0.875 C 1.804688 -0.695312 2.117188 -0.609375 2.515625 -0.609375 C 2.921875 -0.609375 3.222656 -0.6875 3.421875 -0.84375 C 3.617188 -1.007812 3.71875 -1.207031 3.71875 -1.4375 C 3.71875 -1.632812 3.628906 -1.789062 3.453125 -1.90625 C 3.328125 -1.976562 3.023438 -2.078125 2.546875 -2.203125 C 1.910156 -2.359375 1.46875 -2.492188 1.21875 -2.609375 C 0.96875 -2.734375 0.773438 -2.898438 0.640625 -3.109375 C 0.515625 -3.316406 0.453125 -3.550781 0.453125 -3.8125 C 0.453125 -4.039062 0.503906 -4.253906 0.609375 -4.453125 C 0.710938 -4.648438 0.859375 -4.8125 1.046875 -4.9375 C 1.179688 -5.039062 1.363281 -5.125 1.59375 -5.1875 C 1.832031 -5.257812 2.085938 -5.296875 2.359375 -5.296875 C 2.765625 -5.296875 3.117188 -5.238281 3.421875 -5.125 C 3.734375 -5.007812 3.960938 -4.847656 4.109375 -4.640625 C 4.265625 -4.441406 4.367188 -4.175781 4.421875 -3.84375 L 3.5625 -3.734375 C 3.519531 -3.992188 3.40625 -4.195312 3.21875 -4.34375 C 3.03125 -4.5 2.765625 -4.578125 2.421875 -4.578125 C 2.023438 -4.578125 1.738281 -4.507812 1.5625 -4.375 C 1.382812 -4.25 1.296875 -4.09375 1.296875 -3.90625 C 1.296875 -3.789062 1.332031 -3.691406 1.40625 -3.609375 C 1.476562 -3.515625 1.59375 -3.4375 1.75 -3.375 C 1.832031 -3.34375 2.09375 -3.265625 2.53125 -3.140625 C 3.144531 -2.972656 3.570312 -2.835938 3.8125 -2.734375 C 4.0625 -2.628906 4.253906 -2.472656 4.390625 -2.265625 C 4.535156 -2.066406 4.609375 -1.820312 4.609375 -1.53125 C 4.609375 -1.226562 4.523438 -0.945312 4.359375 -0.6875 C 4.191406 -0.4375 3.945312 -0.238281 3.625 -0.09375 C 3.300781 0.0507812 2.9375 0.125 2.53125 0.125 C 1.851562 0.125 1.335938 -0.015625 0.984375 -0.296875 C 0.628906 -0.578125 0.40625 -0.992188 0.3125 -1.546875 Z M 0.3125 -1.546875 "/>
</g>
<g id="glyph-0-15">
<path d="M 3.96875 1.984375 L 3.96875 -0.546875 C 3.832031 -0.359375 3.640625 -0.195312 3.390625 -0.0625 C 3.140625 0.0585938 2.878906 0.125 2.609375 0.125 C 1.992188 0.125 1.460938 -0.117188 1.015625 -0.609375 C 0.578125 -1.109375 0.359375 -1.785156 0.359375 -2.640625 C 0.359375 -3.160156 0.445312 -3.625 0.625 -4.03125 C 0.800781 -4.445312 1.0625 -4.757812 1.40625 -4.96875 C 1.75 -5.1875 2.128906 -5.296875 2.546875 -5.296875 C 3.179688 -5.296875 3.679688 -5.03125 4.046875 -4.5 L 4.046875 -5.1875 L 4.84375 -5.1875 L 4.84375 1.984375 Z M 1.25 -2.609375 C 1.25 -1.941406 1.390625 -1.441406 1.671875 -1.109375 C 1.953125 -0.773438 2.289062 -0.609375 2.6875 -0.609375 C 3.0625 -0.609375 3.378906 -0.765625 3.640625 -1.078125 C 3.910156 -1.398438 4.046875 -1.882812 4.046875 -2.53125 C 4.046875 -3.21875 3.90625 -3.734375 3.625 -4.078125 C 3.34375 -4.429688 3.007812 -4.609375 2.625 -4.609375 C 2.238281 -4.609375 1.910156 -4.445312 1.640625 -4.125 C 1.378906 -3.800781 1.25 -3.296875 1.25 -2.609375 Z M 1.25 -2.609375 "/>
</g>
<g id="glyph-0-16">
<path d="M 4.0625 0 L 4.0625 -0.765625 C 3.65625 -0.171875 3.101562 0.125 2.40625 0.125 C 2.101562 0.125 1.816406 0.0664062 1.546875 -0.046875 C 1.285156 -0.171875 1.085938 -0.320312 0.953125 -0.5 C 0.828125 -0.675781 0.738281 -0.894531 0.6875 -1.15625 C 0.65625 -1.320312 0.640625 -1.59375 0.640625 -1.96875 L 0.640625 -5.1875 L 1.515625 -5.1875 L 1.515625 -2.3125 C 1.515625 -1.851562 1.535156 -1.539062 1.578125 -1.375 C 1.628906 -1.144531 1.742188 -0.960938 1.921875 -0.828125 C 2.097656 -0.703125 2.320312 -0.640625 2.59375 -0.640625 C 2.851562 -0.640625 3.097656 -0.707031 3.328125 -0.84375 C 3.554688 -0.976562 3.71875 -1.160156 3.8125 -1.390625 C 3.914062 -1.628906 3.96875 -1.96875 3.96875 -2.40625 L 3.96875 -5.1875 L 4.84375 -5.1875 L 4.84375 0 Z M 4.0625 0 "/>
</g>
<g id="glyph-0-17">
<path d="M 0.640625 0 L 0.640625 -7.15625 L 1.515625 -7.15625 L 1.515625 0 Z M 0.640625 0 "/>
</g>
<g id="glyph-0-18">
<path d="M 4.203125 -1.671875 L 5.125 -1.5625 C 4.976562 -1.03125 4.707031 -0.613281 4.3125 -0.3125 C 3.925781 -0.0195312 3.4375 0.125 2.84375 0.125 C 2.082031 0.125 1.476562 -0.109375 1.03125 -0.578125 C 0.582031 -1.046875 0.359375 -1.703125 0.359375 -2.546875 C 0.359375 -3.421875 0.582031 -4.097656 1.03125 -4.578125 C 1.488281 -5.054688 2.070312 -5.296875 2.78125 -5.296875 C 3.476562 -5.296875 4.046875 -5.0625 4.484375 -4.59375 C 4.921875 -4.125 5.140625 -3.460938 5.140625 -2.609375 C 5.140625 -2.554688 5.140625 -2.476562 5.140625 -2.375 L 1.28125 -2.375 C 1.3125 -1.800781 1.46875 -1.363281 1.75 -1.0625 C 2.039062 -0.757812 2.40625 -0.609375 2.84375 -0.609375 C 3.164062 -0.609375 3.441406 -0.691406 3.671875 -0.859375 C 3.898438 -1.023438 4.078125 -1.296875 4.203125 -1.671875 Z M 1.328125 -3.09375 L 4.21875 -3.09375 C 4.175781 -3.53125 4.066406 -3.859375 3.890625 -4.078125 C 3.609375 -4.410156 3.242188 -4.578125 2.796875 -4.578125 C 2.390625 -4.578125 2.050781 -4.441406 1.78125 -4.171875 C 1.507812 -3.898438 1.359375 -3.539062 1.328125 -3.09375 Z M 1.328125 -3.09375 "/>
</g>
<g id="glyph-1-0">
<path d="M 0 -0.734375 L -7.15625 -0.734375 L -7.15625 -1.6875 L -3.609375 -1.6875 L -7.15625 -5.234375 L -7.15625 -6.515625 L -4.265625 -3.515625 L 0 -6.65625 L 0 -5.40625 L -3.625 -2.859375 L -2.484375 -1.6875 L 0 -1.6875 Z M 0 -0.734375 "/>
</g>
<g id="glyph-1-1">
<path d="M -0.640625 -4.046875 C -0.359375 -3.722656 -0.160156 -3.410156 -0.046875 -3.109375 C 0.0664062 -2.804688 0.125 -2.484375 0.125 -2.140625 C 0.125 -1.566406 -0.015625 -1.125 -0.296875 -0.8125 C -0.578125 -0.507812 -0.9375 -0.359375 -1.375 -0.359375 C -1.625 -0.359375 -1.851562 -0.414062 -2.0625 -0.53125 C -2.269531 -0.644531 -2.4375 -0.796875 -2.5625 -0.984375 C -2.695312 -1.171875 -2.796875 -1.382812 -2.859375 -1.625 C -2.898438 -1.789062 -2.941406 -2.050781 -2.984375 -2.40625 C -3.066406 -3.113281 -3.171875 -3.632812 -3.296875 -3.96875 C -3.410156 -3.96875 -3.484375 -3.96875 -3.515625 -3.96875 C -3.878906 -3.96875 -4.132812 -3.882812 -4.28125 -3.71875 C -4.476562 -3.5 -4.578125 -3.164062 -4.578125 -2.71875 C -4.578125 -2.3125 -4.503906 -2.007812 -4.359375 -1.8125 C -4.210938 -1.613281 -3.957031 -1.46875 -3.59375 -1.375 L -3.703125 -0.515625 C -4.078125 -0.585938 -4.375 -0.710938 -4.59375 -0.890625 C -4.820312 -1.078125 -4.992188 -1.335938 -5.109375 -1.671875 C -5.234375 -2.015625 -5.296875 -2.410156 -5.296875 -2.859375 C -5.296875 -3.296875 -5.242188 -3.648438 -5.140625 -3.921875 C -5.035156 -4.203125 -4.90625 -4.40625 -4.75 -4.53125 C -4.59375 -4.664062 -4.394531 -4.757812 -4.15625 -4.8125 C -4.007812 -4.84375 -3.738281 -4.859375 -3.34375 -4.859375 L -2.171875 -4.859375 C -1.359375 -4.859375 -0.84375 -4.875 -0.625 -4.90625 C -0.40625 -4.945312 -0.195312 -5.023438 0 -5.140625 L 0 -4.21875 C -0.1875 -4.125 -0.398438 -4.066406 -0.640625 -4.046875 Z M -2.609375 -3.96875 C -2.472656 -3.644531 -2.359375 -3.164062 -2.265625 -2.53125 C -2.210938 -2.175781 -2.15625 -1.921875 -2.09375 -1.765625 C -2.03125 -1.617188 -1.9375 -1.503906 -1.8125 -1.421875 C -1.6875 -1.335938 -1.546875 -1.296875 -1.390625 -1.296875 C -1.160156 -1.296875 -0.96875 -1.382812 -0.8125 -1.5625 C -0.65625 -1.738281 -0.578125 -2 -0.578125 -2.34375 C -0.578125 -2.6875 -0.648438 -2.988281 -0.796875 -3.25 C -0.941406 -3.507812 -1.144531 -3.703125 -1.40625 -3.828125 C -1.601562 -3.921875 -1.894531 -3.96875 -2.28125 -3.96875 Z M -2.609375 -3.96875 "/>
</g>
<g id="glyph-1-2">
<path d="M 0 -4.0625 L -0.765625 -4.0625 C -0.171875 -3.65625 0.125 -3.101562 0.125 -2.40625 C 0.125 -2.101562 0.0664062 -1.816406 -0.046875 -1.546875 C -0.171875 -1.285156 -0.320312 -1.085938 -0.5 -0.953125 C -0.675781 -0.828125 -0.894531 -0.738281 -1.15625 -0.6875 C -1.320312 -0.65625 -1.59375 -0.640625 -1.96875 -0.640625 L -5.1875 -0.640625 L -5.1875 -1.515625 L -2.3125 -1.515625 C -1.851562 -1.515625 -1.539062 -1.535156 -1.375 -1.578125 C -1.144531 -1.628906 -0.960938 -1.742188 -0.828125 -1.921875 C -0.703125 -2.097656 -0.640625 -2.320312 -0.640625 -2.59375 C -0.640625 -2.851562 -0.707031 -3.097656 -0.84375 -3.328125 C -0.976562 -3.554688 -1.160156 -3.71875 -1.390625 -3.8125 C -1.628906 -3.914062 -1.96875 -3.96875 -2.40625 -3.96875 L -5.1875 -3.96875 L -5.1875 -4.84375 L 0 -4.84375 Z M 0 -4.0625 "/>
</g>
<g id="glyph-1-3">
<path d="M 0 -0.875 L -4.5 -0.875 L -4.5 -0.09375 L -5.1875 -0.09375 L -5.1875 -0.875 L -5.734375 -0.875 C -6.085938 -0.875 -6.347656 -0.90625 -6.515625 -0.96875 C -6.742188 -1.050781 -6.925781 -1.195312 -7.0625 -1.40625 C -7.207031 -1.625 -7.28125 -1.925781 -7.28125 -2.3125 C -7.28125 -2.550781 -7.25 -2.820312 -7.1875 -3.125 L -6.421875 -3 C -6.453125 -2.8125 -6.46875 -2.632812 -6.46875 -2.46875 C -6.46875 -2.207031 -6.410156 -2.019531 -6.296875 -1.90625 C -6.191406 -1.800781 -5.984375 -1.75 -5.671875 -1.75 L -5.1875 -1.75 L -5.1875 -2.75 L -4.5 -2.75 L -4.5 -1.75 L 0 -1.75 Z M 0 -0.875 "/>
</g>
<g id="glyph-1-4">
<path d="M 0 -1.46875 L 0 -0.65625 L -7.15625 -0.65625 L -7.15625 -1.53125 L -4.609375 -1.53125 C -5.066406 -1.90625 -5.296875 -2.378906 -5.296875 -2.953125 C -5.296875 -3.273438 -5.234375 -3.578125 -5.109375 -3.859375 C -4.984375 -4.140625 -4.800781 -4.375 -4.5625 -4.5625 C -4.332031 -4.75 -4.050781 -4.894531 -3.71875 -5 C -3.394531 -5.101562 -3.046875 -5.15625 -2.671875 -5.15625 C -1.785156 -5.15625 -1.097656 -4.929688 -0.609375 -4.484375 C -0.117188 -4.046875 0.125 -3.519531 0.125 -2.90625 C 0.125 -2.300781 -0.132812 -1.820312 -0.65625 -1.46875 Z M -2.625 -1.453125 C -2.007812 -1.453125 -1.5625 -1.539062 -1.28125 -1.71875 C -0.832031 -1.988281 -0.609375 -2.363281 -0.609375 -2.84375 C -0.609375 -3.21875 -0.773438 -3.546875 -1.109375 -3.828125 C -1.441406 -4.109375 -1.9375 -4.25 -2.59375 -4.25 C -3.269531 -4.25 -3.769531 -4.113281 -4.09375 -3.84375 C -4.414062 -3.582031 -4.578125 -3.257812 -4.578125 -2.875 C -4.578125 -2.488281 -4.410156 -2.15625 -4.078125 -1.875 C -3.742188 -1.59375 -3.257812 -1.453125 -2.625 -1.453125 Z M -2.625 -1.453125 "/>
</g>
<g id="glyph-1-5">
<path d="M -1.546875 -0.3125 L -1.6875 -1.171875 C -1.332031 -1.222656 -1.0625 -1.359375 -0.875 -1.578125 C -0.695312 -1.804688 -0.609375 -2.117188 -0.609375 -2.515625 C -0.609375 -2.921875 -0.6875 -3.222656 -0.84375 -3.421875 C -1.007812 -3.617188 -1.207031 -3.71875 -1.4375 -3.71875 C -1.632812 -3.71875 -1.789062 -3.628906 -1.90625 -3.453125 C -1.976562 -3.328125 -2.078125 -3.023438 -2.203125 -2.546875 C -2.359375 -1.910156 -2.492188 -1.46875 -2.609375 -1.21875 C -2.734375 -0.96875 -2.898438 -0.773438 -3.109375 -0.640625 C -3.316406 -0.515625 -3.550781 -0.453125 -3.8125 -0.453125 C -4.039062 -0.453125 -4.253906 -0.503906 -4.453125 -0.609375 C -4.648438 -0.710938 -4.8125 -0.859375 -4.9375 -1.046875 C -5.039062 -1.179688 -5.125 -1.363281 -5.1875 -1.59375 C -5.257812 -1.832031 -5.296875 -2.085938 -5.296875 -2.359375 C -5.296875 -2.765625 -5.238281 -3.117188 -5.125 -3.421875 C -5.007812 -3.734375 -4.847656 -3.960938 -4.640625 -4.109375 C -4.441406 -4.265625 -4.175781 -4.367188 -3.84375 -4.421875 L -3.734375 -3.5625 C -3.992188 -3.519531 -4.195312 -3.40625 -4.34375 -3.21875 C -4.5 -3.03125 -4.578125 -2.765625 -4.578125 -2.421875 C -4.578125 -2.023438 -4.507812 -1.738281 -4.375 -1.5625 C -4.25 -1.382812 -4.09375 -1.296875 -3.90625 -1.296875 C -3.789062 -1.296875 -3.691406 -1.332031 -3.609375 -1.40625 C -3.515625 -1.476562 -3.4375 -1.59375 -3.375 -1.75 C -3.34375 -1.832031 -3.265625 -2.09375 -3.140625 -2.53125 C -2.972656 -3.144531 -2.835938 -3.570312 -2.734375 -3.8125 C -2.628906 -4.0625 -2.472656 -4.253906 -2.265625 -4.390625 C -2.066406 -4.535156 -1.820312 -4.609375 -1.53125 -4.609375 C -1.226562 -4.609375 -0.945312 -4.523438 -0.6875 -4.359375 C -0.4375 -4.191406 -0.238281 -3.945312 -0.09375 -3.625 C 0.0507812 -3.300781 0.125 -2.9375 0.125 -2.53125 C 0.125 -1.851562 -0.015625 -1.335938 -0.296875 -0.984375 C -0.578125 -0.628906 -0.992188 -0.40625 -1.546875 -0.3125 Z M -1.546875 -0.3125 "/>
</g>
<g id="glyph-1-6">
<path d="M -6.140625 -0.671875 L -7.15625 -0.671875 L -7.15625 -1.546875 L -6.140625 -1.546875 Z M 0 -0.671875 L -5.1875 -0.671875 L -5.1875 -1.546875 L 0 -1.546875 Z M 0 -0.671875 "/>
</g>
<g id="glyph-1-7">
<path d="M -1.90625 -4.046875 L -1.78125 -4.90625 C -1.1875 -4.8125 -0.71875 -4.566406 -0.375 -4.171875 C -0.0390625 -3.785156 0.125 -3.3125 0.125 -2.75 C 0.125 -2.039062 -0.109375 -1.46875 -0.578125 -1.03125 C -1.046875 -0.601562 -1.710938 -0.390625 -2.578125 -0.390625 C -3.128906 -0.390625 -3.613281 -0.484375 -4.03125 -0.671875 C -4.457031 -0.859375 -4.773438 -1.140625 -4.984375 -1.515625 C -5.191406 -1.890625 -5.296875 -2.300781 -5.296875 -2.75 C -5.296875 -3.3125 -5.15625 -3.769531 -4.875 -4.125 C -4.59375 -4.488281 -4.1875 -4.722656 -3.65625 -4.828125 L -3.53125 -3.96875 C -3.875 -3.882812 -4.132812 -3.738281 -4.3125 -3.53125 C -4.488281 -3.332031 -4.578125 -3.082031 -4.578125 -2.78125 C -4.578125 -2.34375 -4.414062 -1.984375 -4.09375 -1.703125 C -3.78125 -1.429688 -3.28125 -1.296875 -2.59375 -1.296875 C -1.894531 -1.296875 -1.390625 -1.425781 -1.078125 -1.6875 C -0.765625 -1.957031 -0.609375 -2.304688 -0.609375 -2.734375 C -0.609375 -3.078125 -0.710938 -3.363281 -0.921875 -3.59375 C -1.128906 -3.832031 -1.457031 -3.984375 -1.90625 -4.046875 Z M -1.90625 -4.046875 "/>
</g>
<g id="glyph-1-8">
<path d="M 0 -0.65625 L -7.15625 -0.65625 L -7.15625 -1.53125 L -4.59375 -1.53125 C -5.0625 -1.945312 -5.296875 -2.46875 -5.296875 -3.09375 C -5.296875 -3.476562 -5.21875 -3.8125 -5.0625 -4.09375 C -4.914062 -4.375 -4.707031 -4.578125 -4.4375 -4.703125 C -4.175781 -4.828125 -3.789062 -4.890625 -3.28125 -4.890625 L 0 -4.890625 L 0 -4 L -3.28125 -4 C -3.726562 -4 -4.050781 -3.90625 -4.25 -3.71875 C -4.445312 -3.53125 -4.546875 -3.257812 -4.546875 -2.90625 C -4.546875 -2.644531 -4.476562 -2.398438 -4.34375 -2.171875 C -4.207031 -1.941406 -4.023438 -1.773438 -3.796875 -1.671875 C -3.566406 -1.578125 -3.25 -1.53125 -2.84375 -1.53125 L 0 -1.53125 Z M 0 -0.65625 "/>
</g>
<g id="glyph-1-9">
<path d="M -0.78125 -2.578125 L -0.015625 -2.703125 C 0.0351562 -2.453125 0.0625 -2.234375 0.0625 -2.046875 C 0.0625 -1.722656 0.0117188 -1.472656 -0.078125 -1.296875 C -0.179688 -1.117188 -0.316406 -0.992188 -0.484375 -0.921875 C -0.648438 -0.859375 -0.992188 -0.828125 -1.515625 -0.828125 L -4.5 -0.828125 L -4.5 -0.171875 L -5.1875 -0.171875 L -5.1875 -0.828125 L -6.46875 -0.828125 L -7 -1.6875 L -5.1875 -1.6875 L -5.1875 -2.578125 L -4.5 -2.578125 L -4.5 -1.6875 L -1.46875 -1.6875 C -1.21875 -1.6875 -1.054688 -1.703125 -0.984375 -1.734375 C -0.910156 -1.765625 -0.851562 -1.816406 -0.8125 -1.890625 C -0.769531 -1.960938 -0.75 -2.0625 -0.75 -2.1875 C -0.75 -2.289062 -0.757812 -2.421875 -0.78125 -2.578125 Z M -0.78125 -2.578125 "/>
</g>
</g>
<clipPath id="clip-0">
<path clip-rule="nonzero" d="M 26.78125 117 L 420.019531 117 L 420.019531 118 L 26.78125 118 Z M 26.78125 117 "/>
</clipPath>
<clipPath id="clip-1">
<path clip-rule="nonzero" d="M 26.78125 86 L 420.019531 86 L 420.019531 88 L 26.78125 88 Z M 26.78125 86 "/>
</clipPath>
<clipPath id="clip-2">
<path clip-rule="nonzero" d="M 26.78125 56 L 420.019531 56 L 420.019531 57 L 26.78125 57 Z M 26.78125 56 "/>
</clipPath>
<clipPath id="clip-3">
<path clip-rule="nonzero" d="M 26.78125 25 L 420.019531 25 L 420.019531 27 L 26.78125 27 Z M 26.78125 25 "/>
</clipPath>
<clipPath id="clip-4">
<path clip-rule="nonzero" d="M 89 4.980469 L 90 4.980469 L 90 138.519531 L 89 138.519531 Z M 89 4.980469 "/>
</clipPath>
<clipPath id="clip-5">
<path clip-rule="nonzero" d="M 178 4.980469 L 179 4.980469 L 179 138.519531 L 178 138.519531 Z M 178 4.980469 "/>
</clipPath>
<clipPath id="clip-6">
<path clip-rule="nonzero" d="M 267 4.980469 L 269 4.980469 L 269 138.519531 L 267 138.519531 Z M 267 4.980469 "/>
</clipPath>
<clipPath id="clip-7">
<path clip-rule="nonzero" d="M 357 4.980469 L 358 4.980469 L 358 138.519531 L 357 138.519531 Z M 357 4.980469 "/>
</clipPath>
<clipPath id="clip-8">
<path clip-rule="nonzero" d="M 26.78125 131 L 420.019531 131 L 420.019531 133 L 26.78125 133 Z M 26.78125 131 "/>
</clipPath>
<clipPath id="clip-9">
<path clip-rule="nonzero" d="M 26.78125 101 L 420.019531 101 L 420.019531 103 L 26.78125 103 Z M 26.78125 101 "/>
</clipPath>
<clipPath id="clip-10">
<path clip-rule="nonzero" d="M 26.78125 71 L 420.019531 71 L 420.019531 73 L 26.78125 73 Z M 26.78125 71 "/>
</clipPath>
<clipPath id="clip-11">
<path clip-rule="nonzero" d="M 26.78125 40 L 420.019531 40 L 420.019531 42 L 26.78125 42 Z M 26.78125 40 "/>
</clipPath>
<clipPath id="clip-12">
<path clip-rule="nonzero" d="M 26.78125 10 L 420.019531 10 L 420.019531 12 L 26.78125 12 Z M 26.78125 10 "/>
</clipPath>
<clipPath id="clip-13">
<path clip-rule="nonzero" d="M 44 4.980469 L 46 4.980469 L 46 138.519531 L 44 138.519531 Z M 44 4.980469 "/>
</clipPath>
<clipPath id="clip-14">
<path clip-rule="nonzero" d="M 133 4.980469 L 135 4.980469 L 135 138.519531 L 133 138.519531 Z M 133 4.980469 "/>
</clipPath>
<clipPath id="clip-15">
<path clip-rule="nonzero" d="M 222 4.980469 L 224 4.980469 L 224 138.519531 L 222 138.519531 Z M 222 4.980469 "/>
</clipPath>
<clipPath id="clip-16">
<path clip-rule="nonzero" d="M 312 4.980469 L 314 4.980469 L 314 138.519531 L 312 138.519531 Z M 312 4.980469 "/>
</clipPath>
<clipPath id="clip-17">
<path clip-rule="nonzero" d="M 401 4.980469 L 403 4.980469 L 403 138.519531 L 401 138.519531 Z M 401 4.980469 "/>
</clipPath>
</defs>
<rect x="-42.5" y="-16.9" width="510" height="202.8" fill="rgb(100%, 100%, 100%)" fill-opacity="1"/>
<rect x="-42.5" y="-16.9" width="510" height="202.8" fill="rgb(100%, 100%, 100%)" fill-opacity="1"/>
<g clip-path="url(#clip-0)">
<path fill="none" stroke-width="0.48499" stroke-linecap="butt" stroke-linejoin="round" stroke="rgb(92.156863%, 92.156863%, 92.156863%)" stroke-opacity="1" stroke-miterlimit="10" d="M 26.78125 117.273438 L 420.019531 117.273438 "/>
</g>
<g clip-path="url(#clip-1)">
<path fill="none" stroke-width="0.48499" stroke-linecap="butt" stroke-linejoin="round" stroke="rgb(92.156863%, 92.156863%, 92.156863%)" stroke-opacity="1" stroke-miterlimit="10" d="M 26.78125 86.925781 L 420.019531 86.925781 "/>
</g>
<g clip-path="url(#clip-2)">
<path fill="none" stroke-width="0.48499" stroke-linecap="butt" stroke-linejoin="round" stroke="rgb(92.156863%, 92.156863%, 92.156863%)" stroke-opacity="1" stroke-miterlimit="10" d="M 26.78125 56.574219 L 420.019531 56.574219 "/>
</g>
<g clip-path="url(#clip-3)">
<path fill="none" stroke-width="0.48499" stroke-linecap="butt" stroke-linejoin="round" stroke="rgb(92.156863%, 92.156863%, 92.156863%)" stroke-opacity="1" stroke-miterlimit="10" d="M 26.78125 26.226562 L 420.019531 26.226562 "/>
</g>
<g clip-path="url(#clip-4)">
<path fill="none" stroke-width="0.48499" stroke-linecap="butt" stroke-linejoin="round" stroke="rgb(92.156863%, 92.156863%, 92.156863%)" stroke-opacity="1" stroke-miterlimit="10" d="M 89.339844 138.519531 L 89.339844 4.980469 "/>
</g>
<g clip-path="url(#clip-5)">
<path fill="none" stroke-width="0.48499" stroke-linecap="butt" stroke-linejoin="round" stroke="rgb(92.156863%, 92.156863%, 92.156863%)" stroke-opacity="1" stroke-miterlimit="10" d="M 178.710938 138.519531 L 178.710938 4.980469 "/>
</g>
<g clip-path="url(#clip-6)">
<path fill="none" stroke-width="0.48499" stroke-linecap="butt" stroke-linejoin="round" stroke="rgb(92.156863%, 92.156863%, 92.156863%)" stroke-opacity="1" stroke-miterlimit="10" d="M 268.085938 138.519531 L 268.085938 4.980469 "/>
</g>
<g clip-path="url(#clip-7)">
<path fill="none" stroke-width="0.48499" stroke-linecap="butt" stroke-linejoin="round" stroke="rgb(92.156863%, 92.156863%, 92.156863%)" stroke-opacity="1" stroke-miterlimit="10" d="M 357.457031 138.519531 L 357.457031 4.980469 "/>
</g>
<g clip-path="url(#clip-8)">
<path fill="none" stroke-width="0.96998" stroke-linecap="butt" stroke-linejoin="round" stroke="rgb(92.156863%, 92.156863%, 92.156863%)" stroke-opacity="1" stroke-miterlimit="10" d="M 26.78125 132.449219 L 420.019531 132.449219 "/>
</g>
<g clip-path="url(#clip-9)">
<path fill="none" stroke-width="0.96998" stroke-linecap="butt" stroke-linejoin="round" stroke="rgb(92.156863%, 92.156863%, 92.156863%)" stroke-opacity="1" stroke-miterlimit="10" d="M 26.78125 102.101562 L 420.019531 102.101562 "/>
</g>
<g clip-path="url(#clip-10)">
<path fill="none" stroke-width="0.96998" stroke-linecap="butt" stroke-linejoin="round" stroke="rgb(92.156863%, 92.156863%, 92.156863%)" stroke-opacity="1" stroke-miterlimit="10" d="M 26.78125 71.75 L 420.019531 71.75 "/>
</g>
<g clip-path="url(#clip-11)">
<path fill="none" stroke-width="0.96998" stroke-linecap="butt" stroke-linejoin="round" stroke="rgb(92.156863%, 92.156863%, 92.156863%)" stroke-opacity="1" stroke-miterlimit="10" d="M 26.78125 41.402344 L 420.019531 41.402344 "/>
</g>
<g clip-path="url(#clip-12)">
<path fill="none" stroke-width="0.96998" stroke-linecap="butt" stroke-linejoin="round" stroke="rgb(92.156863%, 92.156863%, 92.156863%)" stroke-opacity="1" stroke-miterlimit="10" d="M 26.78125 11.050781 L 420.019531 11.050781 "/>
</g>
<g clip-path="url(#clip-13)">
<path fill="none" stroke-width="0.96998" stroke-linecap="butt" stroke-linejoin="round" stroke="rgb(92.156863%, 92.156863%, 92.156863%)" stroke-opacity="1" stroke-miterlimit="10" d="M 44.652344 138.519531 L 44.652344 4.980469 "/>
</g>
<g clip-path="url(#clip-14)">
<path fill="none" stroke-width="0.96998" stroke-linecap="butt" stroke-linejoin="round" stroke="rgb(92.156863%, 92.156863%, 92.156863%)" stroke-opacity="1" stroke-miterlimit="10" d="M 134.027344 138.519531 L 134.027344 4.980469 "/>
</g>
<g clip-path="url(#clip-15)">
<path fill="none" stroke-width="0.96998" stroke-linecap="butt" stroke-linejoin="round" stroke="rgb(92.156863%, 92.156863%, 92.156863%)" stroke-opacity="1" stroke-miterlimit="10" d="M 223.398438 138.519531 L 223.398438 4.980469 "/>
</g>
<g clip-path="url(#clip-16)">
<path fill="none" stroke-width="0.96998" stroke-linecap="butt" stroke-linejoin="round" stroke="rgb(92.156863%, 92.156863%, 92.156863%)" stroke-opacity="1" stroke-miterlimit="10" d="M 312.773438 138.519531 L 312.773438 4.980469 "/>
</g>
<g clip-path="url(#clip-17)">
<path fill="none" stroke-width="0.96998" stroke-linecap="butt" stroke-linejoin="round" stroke="rgb(92.156863%, 92.156863%, 92.156863%)" stroke-opacity="1" stroke-miterlimit="10" d="M 402.144531 138.519531 L 402.144531 4.980469 "/>
</g>
<path fill-rule="nonzero" fill="rgb(0%, 0%, 0%)" fill-opacity="0.698039" stroke-width="0.644238" stroke-linecap="round" stroke-linejoin="round" stroke="rgb(0%, 0%, 0%)" stroke-opacity="0.698039" stroke-miterlimit="10" d="M 314.546875 102.101562 C 314.546875 104.46875 310.996094 104.46875 310.996094 102.101562 C 310.996094 99.730469 314.546875 99.730469 314.546875 102.101562 "/>
<path fill-rule="nonzero" fill="rgb(0%, 0%, 0%)" fill-opacity="0.698039" stroke-width="0.644238" stroke-linecap="round" stroke-linejoin="round" stroke="rgb(0%, 0%, 0%)" stroke-opacity="0.698039" stroke-miterlimit="10" d="M 344.339844 61.632812 C 344.339844 64.003906 340.785156 64.003906 340.785156 61.632812 C 340.785156 59.265625 344.339844 59.265625 344.339844 61.632812 "/>
<path fill-rule="nonzero" fill="rgb(0%, 0%, 0%)" fill-opacity="0.698039" stroke-width="0.644238" stroke-linecap="round" stroke-linejoin="round" stroke="rgb(0%, 0%, 0%)" stroke-opacity="0.698039" stroke-miterlimit="10" d="M 344.339844 112.214844 C 344.339844 114.585938 340.785156 114.585938 340.785156 112.214844 C 340.785156 109.847656 344.339844 109.847656 344.339844 112.214844 "/>
<path fill-rule="nonzero" fill="rgb(0%, 0%, 0%)" fill-opacity="0.698039" stroke-width="0.644238" stroke-linecap="round" stroke-linejoin="round" stroke="rgb(0%, 0%, 0%)" stroke-opacity="0.698039" stroke-miterlimit="10" d="M 374.128906 81.867188 C 374.128906 84.238281 370.578125 84.238281 370.578125 81.867188 C 370.578125 79.496094 374.128906 79.496094 374.128906 81.867188 "/>
<path fill-rule="nonzero" fill="rgb(0%, 0%, 0%)" fill-opacity="0.698039" stroke-width="0.644238" stroke-linecap="round" stroke-linejoin="round" stroke="rgb(0%, 0%, 0%)" stroke-opacity="0.698039" stroke-miterlimit="10" d="M 344.339844 91.984375 C 344.339844 94.351562 340.785156 94.351562 340.785156 91.984375 C 340.785156 89.613281 344.339844 89.613281 344.339844 91.984375 "/>
<path fill-rule="nonzero" fill="rgb(0%, 0%, 0%)" fill-opacity="0.698039" stroke-width="0.644238" stroke-linecap="round" stroke-linejoin="round" stroke="rgb(0%, 0%, 0%)" stroke-opacity="0.698039" stroke-miterlimit="10" d="M 314.546875 81.867188 C 314.546875 84.238281 310.996094 84.238281 310.996094 81.867188 C 310.996094 79.496094 314.546875 79.496094 314.546875 81.867188 "/>
<path fill-rule="nonzero" fill="rgb(0%, 0%, 0%)" fill-opacity="0.698039" stroke-width="0.644238" stroke-linecap="round" stroke-linejoin="round" stroke="rgb(0%, 0%, 0%)" stroke-opacity="0.698039" stroke-miterlimit="10" d="M 374.128906 61.632812 C 374.128906 64.003906 370.578125 64.003906 370.578125 61.632812 C 370.578125 59.265625 374.128906 59.265625 374.128906 61.632812 "/>
<path fill-rule="nonzero" fill="rgb(0%, 0%, 0%)" fill-opacity="0.698039" stroke-width="0.644238" stroke-linecap="round" stroke-linejoin="round" stroke="rgb(0%, 0%, 0%)" stroke-opacity="0.698039" stroke-miterlimit="10" d="M 344.339844 41.402344 C 344.339844 43.769531 340.785156 43.769531 340.785156 41.402344 C 340.785156 39.03125 344.339844 39.03125 344.339844 41.402344 "/>
<path fill-rule="nonzero" fill="rgb(0%, 0%, 0%)" fill-opacity="0.698039" stroke-width="0.644238" stroke-linecap="round" stroke-linejoin="round" stroke="rgb(0%, 0%, 0%)" stroke-opacity="0.698039" stroke-miterlimit="10" d="M 314.546875 91.984375 C 314.546875 94.351562 310.996094 94.351562 310.996094 91.984375 C 310.996094 89.613281 314.546875 89.613281 314.546875 91.984375 "/>
<path fill-rule="nonzero" fill="rgb(0%, 0%, 0%)" fill-opacity="0.698039" stroke-width="0.644238" stroke-linecap="round" stroke-linejoin="round" stroke="rgb(0%, 0%, 0%)" stroke-opacity="0.698039" stroke-miterlimit="10" d="M 225.175781 91.984375 C 225.175781 94.351562 221.621094 94.351562 221.621094 91.984375 C 221.621094 89.613281 225.175781 89.613281 225.175781 91.984375 "/>
<path fill-rule="nonzero" fill="rgb(0%, 0%, 0%)" fill-opacity="0.698039" stroke-width="0.644238" stroke-linecap="round" stroke-linejoin="round" stroke="rgb(0%, 0%, 0%)" stroke-opacity="0.698039" stroke-miterlimit="10" d="M 284.757812 61.632812 C 284.757812 64.003906 281.203125 64.003906 281.203125 61.632812 C 281.203125 59.265625 284.757812 59.265625 284.757812 61.632812 "/>
<path fill-rule="nonzero" fill="rgb(0%, 0%, 0%)" fill-opacity="0.698039" stroke-width="0.644238" stroke-linecap="round" stroke-linejoin="round" stroke="rgb(0%, 0%, 0%)" stroke-opacity="0.698039" stroke-miterlimit="10" d="M 225.175781 102.101562 C 225.175781 104.46875 221.621094 104.46875 221.621094 102.101562 C 221.621094 99.730469 225.175781 99.730469 225.175781 102.101562 "/>
<path fill-rule="nonzero" fill="rgb(0%, 0%, 0%)" fill-opacity="0.698039" stroke-width="0.644238" stroke-linecap="round" stroke-linejoin="round" stroke="rgb(0%, 0%, 0%)" stroke-opacity="0.698039" stroke-miterlimit="10" d="M 314.546875 41.402344 C 314.546875 43.769531 310.996094 43.769531 310.996094 41.402344 C 310.996094 39.03125 314.546875 39.03125 314.546875 41.402344 "/>
<path fill-rule="nonzero" fill="rgb(0%, 0%, 0%)" fill-opacity="0.698039" stroke-width="0.644238" stroke-linecap="round" stroke-linejoin="round" stroke="rgb(0%, 0%, 0%)" stroke-opacity="0.698039" stroke-miterlimit="10" d="M 374.128906 41.402344 C 374.128906 43.769531 370.578125 43.769531 370.578125 41.402344 C 370.578125 39.03125 374.128906 39.03125 374.128906 41.402344 "/>
<path fill-rule="nonzero" fill="rgb(0%, 0%, 0%)" fill-opacity="0.698039" stroke-width="0.644238" stroke-linecap="round" stroke-linejoin="round" stroke="rgb(0%, 0%, 0%)" stroke-opacity="0.698039" stroke-miterlimit="10" d="M 284.757812 61.632812 C 284.757812 64.003906 281.203125 64.003906 281.203125 61.632812 C 281.203125 59.265625 284.757812 59.265625 284.757812 61.632812 "/>
<path fill-rule="nonzero" fill="rgb(0%, 0%, 0%)" fill-opacity="0.698039" stroke-width="0.644238" stroke-linecap="round" stroke-linejoin="round" stroke="rgb(0%, 0%, 0%)" stroke-opacity="0.698039" stroke-miterlimit="10" d="M 374.128906 102.101562 C 374.128906 104.46875 370.578125 104.46875 370.578125 102.101562 C 370.578125 99.730469 374.128906 99.730469 374.128906 102.101562 "/>
<path fill-rule="nonzero" fill="rgb(0%, 0%, 0%)" fill-opacity="0.698039" stroke-width="0.644238" stroke-linecap="round" stroke-linejoin="round" stroke="rgb(0%, 0%, 0%)" stroke-opacity="0.698039" stroke-miterlimit="10" d="M 344.339844 51.515625 C 344.339844 53.886719 340.785156 53.886719 340.785156 51.515625 C 340.785156 49.148438 344.339844 49.148438 344.339844 51.515625 "/>
<path fill-rule="nonzero" fill="rgb(0%, 0%, 0%)" fill-opacity="0.698039" stroke-width="0.644238" stroke-linecap="round" stroke-linejoin="round" stroke="rgb(0%, 0%, 0%)" stroke-opacity="0.698039" stroke-miterlimit="10" d="M 374.128906 61.632812 C 374.128906 64.003906 370.578125 64.003906 370.578125 61.632812 C 370.578125 59.265625 374.128906 59.265625 374.128906 61.632812 "/>
<path fill-rule="nonzero" fill="rgb(0%, 0%, 0%)" fill-opacity="0.698039" stroke-width="0.644238" stroke-linecap="round" stroke-linejoin="round" stroke="rgb(0%, 0%, 0%)" stroke-opacity="0.698039" stroke-miterlimit="10" d="M 314.546875 51.515625 C 314.546875 53.886719 310.996094 53.886719 310.996094 51.515625 C 310.996094 49.148438 314.546875 49.148438 314.546875 51.515625 "/>
<path fill-rule="nonzero" fill="rgb(0%, 0%, 0%)" fill-opacity="0.698039" stroke-width="0.644238" stroke-linecap="round" stroke-linejoin="round" stroke="rgb(0%, 0%, 0%)" stroke-opacity="0.698039" stroke-miterlimit="10" d="M 403.921875 51.515625 C 403.921875 53.886719 400.367188 53.886719 400.367188 51.515625 C 400.367188 49.148438 403.921875 49.148438 403.921875 51.515625 "/>
<path fill-rule="nonzero" fill="rgb(0%, 0%, 0%)" fill-opacity="0.698039" stroke-width="0.644238" stroke-linecap="round" stroke-linejoin="round" stroke="rgb(0%, 0%, 0%)" stroke-opacity="0.698039" stroke-miterlimit="10" d="M 284.757812 71.75 C 284.757812 74.121094 281.203125 74.121094 281.203125 71.75 C 281.203125 69.382812 284.757812 69.382812 284.757812 71.75 "/>
<path fill-rule="nonzero" fill="rgb(0%, 0%, 0%)" fill-opacity="0.698039" stroke-width="0.644238" stroke-linecap="round" stroke-linejoin="round" stroke="rgb(0%, 0%, 0%)" stroke-opacity="0.698039" stroke-miterlimit="10" d="M 284.757812 61.632812 C 284.757812 64.003906 281.203125 64.003906 281.203125 61.632812 C 281.203125 59.265625 284.757812 59.265625 284.757812 61.632812 "/>
<path fill-rule="nonzero" fill="rgb(0%, 0%, 0%)" fill-opacity="0.698039" stroke-width="0.644238" stroke-linecap="round" stroke-linejoin="round" stroke="rgb(0%, 0%, 0%)" stroke-opacity="0.698039" stroke-miterlimit="10" d="M 284.757812 91.984375 C 284.757812 94.351562 281.203125 94.351562 281.203125 91.984375 C 281.203125 89.613281 284.757812 89.613281 284.757812 91.984375 "/>
<path fill-rule="nonzero" fill="rgb(0%, 0%, 0%)" fill-opacity="0.698039" stroke-width="0.644238" stroke-linecap="round" stroke-linejoin="round" stroke="rgb(0%, 0%, 0%)" stroke-opacity="0.698039" stroke-miterlimit="10" d="M 225.175781 102.101562 C 225.175781 104.46875 221.621094 104.46875 221.621094 102.101562 C 221.621094 99.730469 225.175781 99.730469 225.175781 102.101562 "/>
<path fill-rule="nonzero" fill="rgb(0%, 0%, 0%)" fill-opacity="0.698039" stroke-width="0.644238" stroke-linecap="round" stroke-linejoin="round" stroke="rgb(0%, 0%, 0%)" stroke-opacity="0.698039" stroke-miterlimit="10" d="M 374.128906 41.402344 C 374.128906 43.769531 370.578125 43.769531 370.578125 41.402344 C 370.578125 39.03125 374.128906 39.03125 374.128906 41.402344 "/>
<path fill-rule="nonzero" fill="rgb(0%, 0%, 0%)" fill-opacity="0.698039" stroke-width="0.644238" stroke-linecap="round" stroke-linejoin="round" stroke="rgb(0%, 0%, 0%)" stroke-opacity="0.698039" stroke-miterlimit="10" d="M 314.546875 51.515625 C 314.546875 53.886719 310.996094 53.886719 310.996094 51.515625 C 310.996094 49.148438 314.546875 49.148438 314.546875 51.515625 "/>
<path fill-rule="nonzero" fill="rgb(0%, 0%, 0%)" fill-opacity="0.698039" stroke-width="0.644238" stroke-linecap="round" stroke-linejoin="round" stroke="rgb(0%, 0%, 0%)" stroke-opacity="0.698039" stroke-miterlimit="10" d="M 344.339844 102.101562 C 344.339844 104.46875 340.785156 104.46875 340.785156 102.101562 C 340.785156 99.730469 344.339844 99.730469 344.339844 102.101562 "/>
<path fill-rule="nonzero" fill="rgb(0%, 0%, 0%)" fill-opacity="0.698039" stroke-width="0.644238" stroke-linecap="round" stroke-linejoin="round" stroke="rgb(0%, 0%, 0%)" stroke-opacity="0.698039" stroke-miterlimit="10" d="M 374.128906 81.867188 C 374.128906 84.238281 370.578125 84.238281 370.578125 81.867188 C 370.578125 79.496094 374.128906 79.496094 374.128906 81.867188 "/>
<path fill-rule="nonzero" fill="rgb(0%, 0%, 0%)" fill-opacity="0.698039" stroke-width="0.644238" stroke-linecap="round" stroke-linejoin="round" stroke="rgb(0%, 0%, 0%)" stroke-opacity="0.698039" stroke-miterlimit="10" d="M 374.128906 91.984375 C 374.128906 94.351562 370.578125 94.351562 370.578125 91.984375 C 370.578125 89.613281 374.128906 89.613281 374.128906 91.984375 "/>
<path fill-rule="nonzero" fill="rgb(0%, 0%, 0%)" fill-opacity="0.698039" stroke-width="0.644238" stroke-linecap="round" stroke-linejoin="round" stroke="rgb(0%, 0%, 0%)" stroke-opacity="0.698039" stroke-miterlimit="10" d="M 403.921875 41.402344 C 403.921875 43.769531 400.367188 43.769531 400.367188 41.402344 C 400.367188 39.03125 403.921875 39.03125 403.921875 41.402344 "/>
<path fill-rule="nonzero" fill="rgb(0%, 0%, 0%)" fill-opacity="0.698039" stroke-width="0.644238" stroke-linecap="round" stroke-linejoin="round" stroke="rgb(0%, 0%, 0%)" stroke-opacity="0.698039" stroke-miterlimit="10" d="M 195.386719 132.449219 C 195.386719 134.820312 191.832031 134.820312 191.832031 132.449219 C 191.832031 130.078125 195.386719 130.078125 195.386719 132.449219 "/>
<path fill-rule="nonzero" fill="rgb(0%, 0%, 0%)" fill-opacity="0.698039" stroke-width="0.644238" stroke-linecap="round" stroke-linejoin="round" stroke="rgb(0%, 0%, 0%)" stroke-opacity="0.698039" stroke-miterlimit="10" d="M 403.921875 51.515625 C 403.921875 53.886719 400.367188 53.886719 400.367188 51.515625 C 400.367188 49.148438 403.921875 49.148438 403.921875 51.515625 "/>
<path fill-rule="nonzero" fill="rgb(0%, 0%, 0%)" fill-opacity="0.698039" stroke-width="0.644238" stroke-linecap="round" stroke-linejoin="round" stroke="rgb(0%, 0%, 0%)" stroke-opacity="0.698039" stroke-miterlimit="10" d="M 284.757812 91.984375 C 284.757812 94.351562 281.203125 94.351562 281.203125 91.984375 C 281.203125 89.613281 284.757812 89.613281 284.757812 91.984375 "/>
<path fill-rule="nonzero" fill="rgb(0%, 0%, 0%)" fill-opacity="0.698039" stroke-width="0.644238" stroke-linecap="round" stroke-linejoin="round" stroke="rgb(0%, 0%, 0%)" stroke-opacity="0.698039" stroke-miterlimit="10" d="M 344.339844 51.515625 C 344.339844 53.886719 340.785156 53.886719 340.785156 51.515625 C 340.785156 49.148438 344.339844 49.148438 344.339844 51.515625 "/>
<path fill-rule="nonzero" fill="rgb(0%, 0%, 0%)" fill-opacity="0.698039" stroke-width="0.644238" stroke-linecap="round" stroke-linejoin="round" stroke="rgb(0%, 0%, 0%)" stroke-opacity="0.698039" stroke-miterlimit="10" d="M 374.128906 112.214844 C 374.128906 114.585938 370.578125 114.585938 370.578125 112.214844 C 370.578125 109.847656 374.128906 109.847656 374.128906 112.214844 "/>
<path fill-rule="nonzero" fill="rgb(0%, 0%, 0%)" fill-opacity="0.698039" stroke-width="0.644238" stroke-linecap="round" stroke-linejoin="round" stroke="rgb(0%, 0%, 0%)" stroke-opacity="0.698039" stroke-miterlimit="10" d="M 225.175781 112.214844 C 225.175781 114.585938 221.621094 114.585938 221.621094 112.214844 C 221.621094 109.847656 225.175781 109.847656 225.175781 112.214844 "/>
<path fill-rule="nonzero" fill="rgb(0%, 0%, 0%)" fill-opacity="0.698039" stroke-width="0.644238" stroke-linecap="round" stroke-linejoin="round" stroke="rgb(0%, 0%, 0%)" stroke-opacity="0.698039" stroke-miterlimit="10" d="M 344.339844 71.75 C 344.339844 74.121094 340.785156 74.121094 340.785156 71.75 C 340.785156 69.382812 344.339844 69.382812 344.339844 71.75 "/>
<path fill-rule="nonzero" fill="rgb(0%, 0%, 0%)" fill-opacity="0.698039" stroke-width="0.644238" stroke-linecap="round" stroke-linejoin="round" stroke="rgb(0%, 0%, 0%)" stroke-opacity="0.698039" stroke-miterlimit="10" d="M 403.921875 51.515625 C 403.921875 53.886719 400.367188 53.886719 400.367188 51.515625 C 400.367188 49.148438 403.921875 49.148438 403.921875 51.515625 "/>
<path fill-rule="nonzero" fill="rgb(0%, 0%, 0%)" fill-opacity="0.698039" stroke-width="0.644238" stroke-linecap="round" stroke-linejoin="round" stroke="rgb(0%, 0%, 0%)" stroke-opacity="0.698039" stroke-miterlimit="10" d="M 195.386719 132.449219 C 195.386719 134.820312 191.832031 134.820312 191.832031 132.449219 C 191.832031 130.078125 195.386719 130.078125 195.386719 132.449219 "/>
<path fill-rule="nonzero" fill="rgb(0%, 0%, 0%)" fill-opacity="0.698039" stroke-width="0.644238" stroke-linecap="round" stroke-linejoin="round" stroke="rgb(0%, 0%, 0%)" stroke-opacity="0.698039" stroke-miterlimit="10" d="M 284.757812 31.285156 C 284.757812 33.652344 281.203125 33.652344 281.203125 31.285156 C 281.203125 28.914062 284.757812 28.914062 284.757812 31.285156 "/>
<path fill-rule="nonzero" fill="rgb(0%, 0%, 0%)" fill-opacity="0.698039" stroke-width="0.644238" stroke-linecap="round" stroke-linejoin="round" stroke="rgb(0%, 0%, 0%)" stroke-opacity="0.698039" stroke-miterlimit="10" d="M 284.757812 91.984375 C 284.757812 94.351562 281.203125 94.351562 281.203125 91.984375 C 281.203125 89.613281 284.757812 89.613281 284.757812 91.984375 "/>
<path fill-rule="nonzero" fill="rgb(0%, 0%, 0%)" fill-opacity="0.698039" stroke-width="0.644238" stroke-linecap="round" stroke-linejoin="round" stroke="rgb(0%, 0%, 0%)" stroke-opacity="0.698039" stroke-miterlimit="10" d="M 374.128906 71.75 C 374.128906 74.121094 370.578125 74.121094 370.578125 71.75 C 370.578125 69.382812 374.128906 69.382812 374.128906 71.75 "/>
<path fill-rule="nonzero" fill="rgb(0%, 0%, 0%)" fill-opacity="0.698039" stroke-width="0.644238" stroke-linecap="round" stroke-linejoin="round" stroke="rgb(0%, 0%, 0%)" stroke-opacity="0.698039" stroke-miterlimit="10" d="M 135.804688 91.984375 C 135.804688 94.351562 132.25 94.351562 132.25 91.984375 C 132.25 89.613281 135.804688 89.613281 135.804688 91.984375 "/>
<path fill-rule="nonzero" fill="rgb(0%, 0%, 0%)" fill-opacity="0.698039" stroke-width="0.644238" stroke-linecap="round" stroke-linejoin="round" stroke="rgb(0%, 0%, 0%)" stroke-opacity="0.698039" stroke-miterlimit="10" d="M 314.546875 71.75 C 314.546875 74.121094 310.996094 74.121094 310.996094 71.75 C 310.996094 69.382812 314.546875 69.382812 314.546875 71.75 "/>
<path fill-rule="nonzero" fill="rgb(0%, 0%, 0%)" fill-opacity="0.698039" stroke-width="0.644238" stroke-linecap="round" stroke-linejoin="round" stroke="rgb(0%, 0%, 0%)" stroke-opacity="0.698039" stroke-miterlimit="10" d="M 225.175781 102.101562 C 225.175781 104.46875 221.621094 104.46875 221.621094 102.101562 C 221.621094 99.730469 225.175781 99.730469 225.175781 102.101562 "/>
<path fill-rule="nonzero" fill="rgb(0%, 0%, 0%)" fill-opacity="0.698039" stroke-width="0.644238" stroke-linecap="round" stroke-linejoin="round" stroke="rgb(0%, 0%, 0%)" stroke-opacity="0.698039" stroke-miterlimit="10" d="M 403.921875 11.050781 C 403.921875 13.421875 400.367188 13.421875 400.367188 11.050781 C 400.367188 8.683594 403.921875 8.683594 403.921875 11.050781 "/>
<path fill-rule="nonzero" fill="rgb(0%, 0%, 0%)" fill-opacity="0.698039" stroke-width="0.644238" stroke-linecap="round" stroke-linejoin="round" stroke="rgb(0%, 0%, 0%)" stroke-opacity="0.698039" stroke-miterlimit="10" d="M 374.128906 41.402344 C 374.128906 43.769531 370.578125 43.769531 370.578125 41.402344 C 370.578125 39.03125 374.128906 39.03125 374.128906 41.402344 "/>
<path fill-rule="nonzero" fill="rgb(0%, 0%, 0%)" fill-opacity="0.698039" stroke-width="0.644238" stroke-linecap="round" stroke-linejoin="round" stroke="rgb(0%, 0%, 0%)" stroke-opacity="0.698039" stroke-miterlimit="10" d="M 374.128906 61.632812 C 374.128906 64.003906 370.578125 64.003906 370.578125 61.632812 C 370.578125 59.265625 374.128906 59.265625 374.128906 61.632812 "/>
<path fill-rule="nonzero" fill="rgb(0%, 0%, 0%)" fill-opacity="0.698039" stroke-width="0.644238" stroke-linecap="round" stroke-linejoin="round" stroke="rgb(0%, 0%, 0%)" stroke-opacity="0.698039" stroke-miterlimit="10" d="M 284.757812 61.632812 C 284.757812 64.003906 281.203125 64.003906 281.203125 61.632812 C 281.203125 59.265625 284.757812 59.265625 284.757812 61.632812 "/>
<path fill-rule="nonzero" fill="rgb(0%, 0%, 0%)" fill-opacity="0.698039" stroke-width="0.644238" stroke-linecap="round" stroke-linejoin="round" stroke="rgb(0%, 0%, 0%)" stroke-opacity="0.698039" stroke-miterlimit="10" d="M 344.339844 91.984375 C 344.339844 94.351562 340.785156 94.351562 340.785156 91.984375 C 340.785156 89.613281 344.339844 89.613281 344.339844 91.984375 "/>
<path fill-rule="nonzero" fill="rgb(0%, 0%, 0%)" fill-opacity="0.698039" stroke-width="0.644238" stroke-linecap="round" stroke-linejoin="round" stroke="rgb(0%, 0%, 0%)" stroke-opacity="0.698039" stroke-miterlimit="10" d="M 374.128906 71.75 C 374.128906 74.121094 370.578125 74.121094 370.578125 71.75 C 370.578125 69.382812 374.128906 69.382812 374.128906 71.75 "/>
<path fill-rule="nonzero" fill="rgb(0%, 0%, 0%)" fill-opacity="0.698039" stroke-width="0.644238" stroke-linecap="round" stroke-linejoin="round" stroke="rgb(0%, 0%, 0%)" stroke-opacity="0.698039" stroke-miterlimit="10" d="M 284.757812 91.984375 C 284.757812 94.351562 281.203125 94.351562 281.203125 91.984375 C 281.203125 89.613281 284.757812 89.613281 284.757812 91.984375 "/>
<path fill-rule="nonzero" fill="rgb(0%, 0%, 0%)" fill-opacity="0.698039" stroke-width="0.644238" stroke-linecap="round" stroke-linejoin="round" stroke="rgb(0%, 0%, 0%)" stroke-opacity="0.698039" stroke-miterlimit="10" d="M 403.921875 51.515625 C 403.921875 53.886719 400.367188 53.886719 400.367188 51.515625 C 400.367188 49.148438 403.921875 49.148438 403.921875 51.515625 "/>
<path fill-rule="nonzero" fill="rgb(0%, 0%, 0%)" fill-opacity="0.698039" stroke-width="0.644238" stroke-linecap="round" stroke-linejoin="round" stroke="rgb(0%, 0%, 0%)" stroke-opacity="0.698039" stroke-miterlimit="10" d="M 344.339844 71.75 C 344.339844 74.121094 340.785156 74.121094 340.785156 71.75 C 340.785156 69.382812 344.339844 69.382812 344.339844 71.75 "/>
<path fill-rule="nonzero" fill="rgb(0%, 0%, 0%)" fill-opacity="0.698039" stroke-width="0.644238" stroke-linecap="round" stroke-linejoin="round" stroke="rgb(0%, 0%, 0%)" stroke-opacity="0.698039" stroke-miterlimit="10" d="M 374.128906 112.214844 C 374.128906 114.585938 370.578125 114.585938 370.578125 112.214844 C 370.578125 109.847656 374.128906 109.847656 374.128906 112.214844 "/>
<path fill-rule="nonzero" fill="rgb(0%, 0%, 0%)" fill-opacity="0.698039" stroke-width="0.644238" stroke-linecap="round" stroke-linejoin="round" stroke="rgb(0%, 0%, 0%)" stroke-opacity="0.698039" stroke-miterlimit="10" d="M 195.386719 102.101562 C 195.386719 104.46875 191.832031 104.46875 191.832031 102.101562 C 191.832031 99.730469 195.386719 99.730469 195.386719 102.101562 "/>
<path fill-rule="nonzero" fill="rgb(0%, 0%, 0%)" fill-opacity="0.698039" stroke-width="0.644238" stroke-linecap="round" stroke-linejoin="round" stroke="rgb(0%, 0%, 0%)" stroke-opacity="0.698039" stroke-miterlimit="10" d="M 225.175781 102.101562 C 225.175781 104.46875 221.621094 104.46875 221.621094 102.101562 C 221.621094 99.730469 225.175781 99.730469 225.175781 102.101562 "/>
<path fill-rule="nonzero" fill="rgb(0%, 0%, 0%)" fill-opacity="0.698039" stroke-width="0.644238" stroke-linecap="round" stroke-linejoin="round" stroke="rgb(0%, 0%, 0%)" stroke-opacity="0.698039" stroke-miterlimit="10" d="M 195.386719 102.101562 C 195.386719 104.46875 191.832031 104.46875 191.832031 102.101562 C 191.832031 99.730469 195.386719 99.730469 195.386719 102.101562 "/>
<path fill-rule="nonzero" fill="rgb(0%, 0%, 0%)" fill-opacity="0.698039" stroke-width="0.644238" stroke-linecap="round" stroke-linejoin="round" stroke="rgb(0%, 0%, 0%)" stroke-opacity="0.698039" stroke-miterlimit="10" d="M 314.546875 91.984375 C 314.546875 94.351562 310.996094 94.351562 310.996094 91.984375 C 310.996094 89.613281 314.546875 89.613281 314.546875 91.984375 "/>
<path fill-rule="nonzero" fill="rgb(0%, 0%, 0%)" fill-opacity="0.698039" stroke-width="0.644238" stroke-linecap="round" stroke-linejoin="round" stroke="rgb(0%, 0%, 0%)" stroke-opacity="0.698039" stroke-miterlimit="10" d="M 374.128906 61.632812 C 374.128906 64.003906 370.578125 64.003906 370.578125 61.632812 C 370.578125 59.265625 374.128906 59.265625 374.128906 61.632812 "/>
<path fill-rule="nonzero" fill="rgb(0%, 0%, 0%)" fill-opacity="0.698039" stroke-width="0.644238" stroke-linecap="round" stroke-linejoin="round" stroke="rgb(0%, 0%, 0%)" stroke-opacity="0.698039" stroke-miterlimit="10" d="M 403.921875 61.632812 C 403.921875 64.003906 400.367188 64.003906 400.367188 61.632812 C 400.367188 59.265625 403.921875 59.265625 403.921875 61.632812 "/>
<path fill-rule="nonzero" fill="rgb(0%, 0%, 0%)" fill-opacity="0.698039" stroke-width="0.644238" stroke-linecap="round" stroke-linejoin="round" stroke="rgb(0%, 0%, 0%)" stroke-opacity="0.698039" stroke-miterlimit="10" d="M 374.128906 102.101562 C 374.128906 104.46875 370.578125 104.46875 370.578125 102.101562 C 370.578125 99.730469 374.128906 99.730469 374.128906 102.101562 "/>
<path fill-rule="nonzero" fill="rgb(0%, 0%, 0%)" fill-opacity="0.698039" stroke-width="0.644238" stroke-linecap="round" stroke-linejoin="round" stroke="rgb(0%, 0%, 0%)" stroke-opacity="0.698039" stroke-miterlimit="10" d="M 374.128906 81.867188 C 374.128906 84.238281 370.578125 84.238281 370.578125 81.867188 C 370.578125 79.496094 374.128906 79.496094 374.128906 81.867188 "/>
<path fill-rule="nonzero" fill="rgb(0%, 0%, 0%)" fill-opacity="0.698039" stroke-width="0.644238" stroke-linecap="round" stroke-linejoin="round" stroke="rgb(0%, 0%, 0%)" stroke-opacity="0.698039" stroke-miterlimit="10" d="M 314.546875 81.867188 C 314.546875 84.238281 310.996094 84.238281 310.996094 81.867188 C 310.996094 79.496094 314.546875 79.496094 314.546875 81.867188 "/>
<path fill-rule="nonzero" fill="rgb(0%, 0%, 0%)" fill-opacity="0.698039" stroke-width="0.644238" stroke-linecap="round" stroke-linejoin="round" stroke="rgb(0%, 0%, 0%)" stroke-opacity="0.698039" stroke-miterlimit="10" d="M 314.546875 81.867188 C 314.546875 84.238281 310.996094 84.238281 310.996094 81.867188 C 310.996094 79.496094 314.546875 79.496094 314.546875 81.867188 "/>
<path fill-rule="nonzero" fill="rgb(0%, 0%, 0%)" fill-opacity="0.698039" stroke-width="0.644238" stroke-linecap="round" stroke-linejoin="round" stroke="rgb(0%, 0%, 0%)" stroke-opacity="0.698039" stroke-miterlimit="10" d="M 284.757812 132.449219 C 284.757812 134.820312 281.203125 134.820312 281.203125 132.449219 C 281.203125 130.078125 284.757812 130.078125 284.757812 132.449219 "/>
<path fill-rule="nonzero" fill="rgb(0%, 0%, 0%)" fill-opacity="0.698039" stroke-width="0.644238" stroke-linecap="round" stroke-linejoin="round" stroke="rgb(0%, 0%, 0%)" stroke-opacity="0.698039" stroke-miterlimit="10" d="M 314.546875 132.449219 C 314.546875 134.820312 310.996094 134.820312 310.996094 132.449219 C 310.996094 130.078125 314.546875 130.078125 314.546875 132.449219 "/>
<path fill-rule="nonzero" fill="rgb(0%, 0%, 0%)" fill-opacity="0.698039" stroke-width="0.644238" stroke-linecap="round" stroke-linejoin="round" stroke="rgb(0%, 0%, 0%)" stroke-opacity="0.698039" stroke-miterlimit="10" d="M 403.921875 71.75 C 403.921875 74.121094 400.367188 74.121094 400.367188 71.75 C 400.367188 69.382812 403.921875 69.382812 403.921875 71.75 "/>
<path fill-rule="nonzero" fill="rgb(0%, 0%, 0%)" fill-opacity="0.698039" stroke-width="0.644238" stroke-linecap="round" stroke-linejoin="round" stroke="rgb(0%, 0%, 0%)" stroke-opacity="0.698039" stroke-miterlimit="10" d="M 314.546875 112.214844 C 314.546875 114.585938 310.996094 114.585938 310.996094 112.214844 C 310.996094 109.847656 314.546875 109.847656 314.546875 112.214844 "/>
<path fill-rule="nonzero" fill="rgb(0%, 0%, 0%)" fill-opacity="0.698039" stroke-width="0.644238" stroke-linecap="round" stroke-linejoin="round" stroke="rgb(0%, 0%, 0%)" stroke-opacity="0.698039" stroke-miterlimit="10" d="M 314.546875 71.75 C 314.546875 74.121094 310.996094 74.121094 310.996094 71.75 C 310.996094 69.382812 314.546875 69.382812 314.546875 71.75 "/>
<path fill-rule="nonzero" fill="rgb(0%, 0%, 0%)" fill-opacity="0.698039" stroke-width="0.644238" stroke-linecap="round" stroke-linejoin="round" stroke="rgb(0%, 0%, 0%)" stroke-opacity="0.698039" stroke-miterlimit="10" d="M 344.339844 102.101562 C 344.339844 104.46875 340.785156 104.46875 340.785156 102.101562 C 340.785156 99.730469 344.339844 99.730469 344.339844 102.101562 "/>
<path fill-rule="nonzero" fill="rgb(0%, 0%, 0%)" fill-opacity="0.698039" stroke-width="0.644238" stroke-linecap="round" stroke-linejoin="round" stroke="rgb(0%, 0%, 0%)" stroke-opacity="0.698039" stroke-miterlimit="10" d="M 314.546875 61.632812 C 314.546875 64.003906 310.996094 64.003906 310.996094 61.632812 C 310.996094 59.265625 314.546875 59.265625 314.546875 61.632812 "/>
<path fill-rule="nonzero" fill="rgb(0%, 0%, 0%)" fill-opacity="0.698039" stroke-width="0.644238" stroke-linecap="round" stroke-linejoin="round" stroke="rgb(0%, 0%, 0%)" stroke-opacity="0.698039" stroke-miterlimit="10" d="M 314.546875 102.101562 C 314.546875 104.46875 310.996094 104.46875 310.996094 102.101562 C 310.996094 99.730469 314.546875 99.730469 314.546875 102.101562 "/>
<path fill-rule="nonzero" fill="rgb(0%, 0%, 0%)" fill-opacity="0.698039" stroke-width="0.644238" stroke-linecap="round" stroke-linejoin="round" stroke="rgb(0%, 0%, 0%)" stroke-opacity="0.698039" stroke-miterlimit="10" d="M 254.96875 132.449219 C 254.96875 134.820312 251.414062 134.820312 251.414062 132.449219 C 251.414062 130.078125 254.96875 130.078125 254.96875 132.449219 "/>
<path fill-rule="nonzero" fill="rgb(0%, 0%, 0%)" fill-opacity="0.698039" stroke-width="0.644238" stroke-linecap="round" stroke-linejoin="round" stroke="rgb(0%, 0%, 0%)" stroke-opacity="0.698039" stroke-miterlimit="10" d="M 344.339844 122.332031 C 344.339844 124.703125 340.785156 124.703125 340.785156 122.332031 C 340.785156 119.964844 344.339844 119.964844 344.339844 122.332031 "/>
<path fill-rule="nonzero" fill="rgb(0%, 0%, 0%)" fill-opacity="0.698039" stroke-width="0.644238" stroke-linecap="round" stroke-linejoin="round" stroke="rgb(0%, 0%, 0%)" stroke-opacity="0.698039" stroke-miterlimit="10" d="M 374.128906 81.867188 C 374.128906 84.238281 370.578125 84.238281 370.578125 81.867188 C 370.578125 79.496094 374.128906 79.496094 374.128906 81.867188 "/>
<path fill-rule="nonzero" fill="rgb(0%, 0%, 0%)" fill-opacity="0.698039" stroke-width="0.644238" stroke-linecap="round" stroke-linejoin="round" stroke="rgb(0%, 0%, 0%)" stroke-opacity="0.698039" stroke-miterlimit="10" d="M 344.339844 61.632812 C 344.339844 64.003906 340.785156 64.003906 340.785156 61.632812 C 340.785156 59.265625 344.339844 59.265625 344.339844 61.632812 "/>
<path fill-rule="nonzero" fill="rgb(0%, 0%, 0%)" fill-opacity="0.698039" stroke-width="0.644238" stroke-linecap="round" stroke-linejoin="round" stroke="rgb(0%, 0%, 0%)" stroke-opacity="0.698039" stroke-miterlimit="10" d="M 314.546875 91.984375 C 314.546875 94.351562 310.996094 94.351562 310.996094 91.984375 C 310.996094 89.613281 314.546875 89.613281 314.546875 91.984375 "/>
<path fill-rule="nonzero" fill="rgb(0%, 0%, 0%)" fill-opacity="0.698039" stroke-width="0.644238" stroke-linecap="round" stroke-linejoin="round" stroke="rgb(0%, 0%, 0%)" stroke-opacity="0.698039" stroke-miterlimit="10" d="M 284.757812 122.332031 C 284.757812 124.703125 281.203125 124.703125 281.203125 122.332031 C 281.203125 119.964844 284.757812 119.964844 284.757812 122.332031 "/>
<path fill-rule="nonzero" fill="rgb(0%, 0%, 0%)" fill-opacity="0.698039" stroke-width="0.644238" stroke-linecap="round" stroke-linejoin="round" stroke="rgb(0%, 0%, 0%)" stroke-opacity="0.698039" stroke-miterlimit="10" d="M 135.804688 122.332031 C 135.804688 124.703125 132.25 124.703125 132.25 122.332031 C 132.25 119.964844 135.804688 119.964844 135.804688 122.332031 "/>
<path fill-rule="nonzero" fill="rgb(0%, 0%, 0%)" fill-opacity="0.698039" stroke-width="0.644238" stroke-linecap="round" stroke-linejoin="round" stroke="rgb(0%, 0%, 0%)" stroke-opacity="0.698039" stroke-miterlimit="10" d="M 403.921875 41.402344 C 403.921875 43.769531 400.367188 43.769531 400.367188 41.402344 C 400.367188 39.03125 403.921875 39.03125 403.921875 41.402344 "/>
<path fill-rule="nonzero" fill="rgb(0%, 0%, 0%)" fill-opacity="0.698039" stroke-width="0.644238" stroke-linecap="round" stroke-linejoin="round" stroke="rgb(0%, 0%, 0%)" stroke-opacity="0.698039" stroke-miterlimit="10" d="M 254.96875 91.984375 C 254.96875 94.351562 251.414062 94.351562 251.414062 91.984375 C 251.414062 89.613281 254.96875 89.613281 254.96875 91.984375 "/>
<path fill-rule="nonzero" fill="rgb(0%, 0%, 0%)" fill-opacity="0.698039" stroke-width="0.644238" stroke-linecap="round" stroke-linejoin="round" stroke="rgb(0%, 0%, 0%)" stroke-opacity="0.698039" stroke-miterlimit="10" d="M 195.386719 132.449219 C 195.386719 134.820312 191.832031 134.820312 191.832031 132.449219 C 191.832031 130.078125 195.386719 130.078125 195.386719 132.449219 "/>
<path fill-rule="nonzero" fill="rgb(0%, 0%, 0%)" fill-opacity="0.698039" stroke-width="0.644238" stroke-linecap="round" stroke-linejoin="round" stroke="rgb(0%, 0%, 0%)" stroke-opacity="0.698039" stroke-miterlimit="10" d="M 374.128906 81.867188 C 374.128906 84.238281 370.578125 84.238281 370.578125 81.867188 C 370.578125 79.496094 374.128906 79.496094 374.128906 81.867188 "/>
<path fill-rule="nonzero" fill="rgb(0%, 0%, 0%)" fill-opacity="0.698039" stroke-width="0.644238" stroke-linecap="round" stroke-linejoin="round" stroke="rgb(0%, 0%, 0%)" stroke-opacity="0.698039" stroke-miterlimit="10" d="M 314.546875 112.214844 C 314.546875 114.585938 310.996094 114.585938 310.996094 112.214844 C 310.996094 109.847656 314.546875 109.847656 314.546875 112.214844 "/>
<path fill-rule="nonzero" fill="rgb(0%, 0%, 0%)" fill-opacity="0.698039" stroke-width="0.644238" stroke-linecap="round" stroke-linejoin="round" stroke="rgb(0%, 0%, 0%)" stroke-opacity="0.698039" stroke-miterlimit="10" d="M 403.921875 71.75 C 403.921875 74.121094 400.367188 74.121094 400.367188 71.75 C 400.367188 69.382812 403.921875 69.382812 403.921875 71.75 "/>
<path fill-rule="nonzero" fill="rgb(0%, 0%, 0%)" fill-opacity="0.698039" stroke-width="0.644238" stroke-linecap="round" stroke-linejoin="round" stroke="rgb(0%, 0%, 0%)" stroke-opacity="0.698039" stroke-miterlimit="10" d="M 314.546875 61.632812 C 314.546875 64.003906 310.996094 64.003906 310.996094 61.632812 C 310.996094 59.265625 314.546875 59.265625 314.546875 61.632812 "/>
<path fill-rule="nonzero" fill="rgb(0%, 0%, 0%)" fill-opacity="0.698039" stroke-width="0.644238" stroke-linecap="round" stroke-linejoin="round" stroke="rgb(0%, 0%, 0%)" stroke-opacity="0.698039" stroke-miterlimit="10" d="M 374.128906 91.984375 C 374.128906 94.351562 370.578125 94.351562 370.578125 91.984375 C 370.578125 89.613281 374.128906 89.613281 374.128906 91.984375 "/>
<path fill-rule="nonzero" fill="rgb(0%, 0%, 0%)" fill-opacity="0.698039" stroke-width="0.644238" stroke-linecap="round" stroke-linejoin="round" stroke="rgb(0%, 0%, 0%)" stroke-opacity="0.698039" stroke-miterlimit="10" d="M 403.921875 71.75 C 403.921875 74.121094 400.367188 74.121094 400.367188 71.75 C 400.367188 69.382812 403.921875 69.382812 403.921875 71.75 "/>
<path fill-rule="nonzero" fill="rgb(0%, 0%, 0%)" fill-opacity="0.698039" stroke-width="0.644238" stroke-linecap="round" stroke-linejoin="round" stroke="rgb(0%, 0%, 0%)" stroke-opacity="0.698039" stroke-miterlimit="10" d="M 314.546875 81.867188 C 314.546875 84.238281 310.996094 84.238281 310.996094 81.867188 C 310.996094 79.496094 314.546875 79.496094 314.546875 81.867188 "/>
<path fill-rule="nonzero" fill="rgb(0%, 0%, 0%)" fill-opacity="0.698039" stroke-width="0.644238" stroke-linecap="round" stroke-linejoin="round" stroke="rgb(0%, 0%, 0%)" stroke-opacity="0.698039" stroke-miterlimit="10" d="M 403.921875 122.332031 C 403.921875 124.703125 400.367188 124.703125 400.367188 122.332031 C 400.367188 119.964844 403.921875 119.964844 403.921875 122.332031 "/>
<path fill-rule="nonzero" fill="rgb(0%, 0%, 0%)" fill-opacity="0.698039" stroke-width="0.644238" stroke-linecap="round" stroke-linejoin="round" stroke="rgb(0%, 0%, 0%)" stroke-opacity="0.698039" stroke-miterlimit="10" d="M 344.339844 122.332031 C 344.339844 124.703125 340.785156 124.703125 340.785156 122.332031 C 340.785156 119.964844 344.339844 119.964844 344.339844 122.332031 "/>
<path fill-rule="nonzero" fill="rgb(0%, 0%, 0%)" fill-opacity="0.698039" stroke-width="0.644238" stroke-linecap="round" stroke-linejoin="round" stroke="rgb(0%, 0%, 0%)" stroke-opacity="0.698039" stroke-miterlimit="10" d="M 374.128906 81.867188 C 374.128906 84.238281 370.578125 84.238281 370.578125 81.867188 C 370.578125 79.496094 374.128906 79.496094 374.128906 81.867188 "/>
<path fill-rule="nonzero" fill="rgb(0%, 0%, 0%)" fill-opacity="0.698039" stroke-width="0.644238" stroke-linecap="round" stroke-linejoin="round" stroke="rgb(0%, 0%, 0%)" stroke-opacity="0.698039" stroke-miterlimit="10" d="M 344.339844 91.984375 C 344.339844 94.351562 340.785156 94.351562 340.785156 91.984375 C 340.785156 89.613281 344.339844 89.613281 344.339844 91.984375 "/>
<path fill-rule="nonzero" fill="rgb(0%, 0%, 0%)" fill-opacity="0.698039" stroke-width="0.644238" stroke-linecap="round" stroke-linejoin="round" stroke="rgb(0%, 0%, 0%)" stroke-opacity="0.698039" stroke-miterlimit="10" d="M 344.339844 132.449219 C 344.339844 134.820312 340.785156 134.820312 340.785156 132.449219 C 340.785156 130.078125 344.339844 130.078125 344.339844 132.449219 "/>
<path fill-rule="nonzero" fill="rgb(0%, 0%, 0%)" fill-opacity="0.698039" stroke-width="0.644238" stroke-linecap="round" stroke-linejoin="round" stroke="rgb(0%, 0%, 0%)" stroke-opacity="0.698039" stroke-miterlimit="10" d="M 403.921875 61.632812 C 403.921875 64.003906 400.367188 64.003906 400.367188 61.632812 C 400.367188 59.265625 403.921875 59.265625 403.921875 61.632812 "/>
<path fill-rule="nonzero" fill="rgb(0%, 0%, 0%)" fill-opacity="0.698039" stroke-width="0.644238" stroke-linecap="round" stroke-linejoin="round" stroke="rgb(0%, 0%, 0%)" stroke-opacity="0.698039" stroke-miterlimit="10" d="M 284.757812 91.984375 C 284.757812 94.351562 281.203125 94.351562 281.203125 91.984375 C 281.203125 89.613281 284.757812 89.613281 284.757812 91.984375 "/>
<path fill-rule="nonzero" fill="rgb(0%, 0%, 0%)" fill-opacity="0.698039" stroke-width="0.644238" stroke-linecap="round" stroke-linejoin="round" stroke="rgb(0%, 0%, 0%)" stroke-opacity="0.698039" stroke-miterlimit="10" d="M 344.339844 71.75 C 344.339844 74.121094 340.785156 74.121094 340.785156 71.75 C 340.785156 69.382812 344.339844 69.382812 344.339844 71.75 "/>
<path fill-rule="nonzero" fill="rgb(0%, 0%, 0%)" fill-opacity="0.698039" stroke-width="0.644238" stroke-linecap="round" stroke-linejoin="round" stroke="rgb(0%, 0%, 0%)" stroke-opacity="0.698039" stroke-miterlimit="10" d="M 284.757812 132.449219 C 284.757812 134.820312 281.203125 134.820312 281.203125 132.449219 C 281.203125 130.078125 284.757812 130.078125 284.757812 132.449219 "/>
<path fill-rule="nonzero" fill="rgb(0%, 0%, 0%)" fill-opacity="0.698039" stroke-width="0.644238" stroke-linecap="round" stroke-linejoin="round" stroke="rgb(0%, 0%, 0%)" stroke-opacity="0.698039" stroke-miterlimit="10" d="M 254.96875 112.214844 C 254.96875 114.585938 251.414062 114.585938 251.414062 112.214844 C 251.414062 109.847656 254.96875 109.847656 254.96875 112.214844 "/>
<path fill-rule="nonzero" fill="rgb(0%, 0%, 0%)" fill-opacity="0.698039" stroke-width="0.644238" stroke-linecap="round" stroke-linejoin="round" stroke="rgb(0%, 0%, 0%)" stroke-opacity="0.698039" stroke-miterlimit="10" d="M 314.546875 81.867188 C 314.546875 84.238281 310.996094 84.238281 310.996094 81.867188 C 310.996094 79.496094 314.546875 79.496094 314.546875 81.867188 "/>
<path fill-rule="nonzero" fill="rgb(0%, 0%, 0%)" fill-opacity="0.698039" stroke-width="0.644238" stroke-linecap="round" stroke-linejoin="round" stroke="rgb(0%, 0%, 0%)" stroke-opacity="0.698039" stroke-miterlimit="10" d="M 225.175781 71.75 C 225.175781 74.121094 221.621094 74.121094 221.621094 71.75 C 221.621094 69.382812 225.175781 69.382812 225.175781 71.75 "/>
<path fill-rule="nonzero" fill="rgb(0%, 0%, 0%)" fill-opacity="0.698039" stroke-width="0.644238" stroke-linecap="round" stroke-linejoin="round" stroke="rgb(0%, 0%, 0%)" stroke-opacity="0.698039" stroke-miterlimit="10" d="M 284.757812 81.867188 C 284.757812 84.238281 281.203125 84.238281 281.203125 81.867188 C 281.203125 79.496094 284.757812 79.496094 284.757812 81.867188 "/>
<path fill-rule="nonzero" fill="rgb(0%, 0%, 0%)" fill-opacity="0.698039" stroke-width="0.644238" stroke-linecap="round" stroke-linejoin="round" stroke="rgb(0%, 0%, 0%)" stroke-opacity="0.698039" stroke-miterlimit="10" d="M 314.546875 132.449219 C 314.546875 134.820312 310.996094 134.820312 310.996094 132.449219 C 310.996094 130.078125 314.546875 130.078125 314.546875 132.449219 "/>
<path fill-rule="nonzero" fill="rgb(0%, 0%, 0%)" fill-opacity="0.698039" stroke-width="0.644238" stroke-linecap="round" stroke-linejoin="round" stroke="rgb(0%, 0%, 0%)" stroke-opacity="0.698039" stroke-miterlimit="10" d="M 284.757812 81.867188 C 284.757812 84.238281 281.203125 84.238281 281.203125 81.867188 C 281.203125 79.496094 284.757812 79.496094 284.757812 81.867188 "/>
<path fill-rule="nonzero" fill="rgb(0%, 0%, 0%)" fill-opacity="0.698039" stroke-width="0.644238" stroke-linecap="round" stroke-linejoin="round" stroke="rgb(0%, 0%, 0%)" stroke-opacity="0.698039" stroke-miterlimit="10" d="M 403.921875 51.515625 C 403.921875 53.886719 400.367188 53.886719 400.367188 51.515625 C 400.367188 49.148438 403.921875 49.148438 403.921875 51.515625 "/>
<path fill-rule="nonzero" fill="rgb(0%, 0%, 0%)" fill-opacity="0.698039" stroke-width="0.644238" stroke-linecap="round" stroke-linejoin="round" stroke="rgb(0%, 0%, 0%)" stroke-opacity="0.698039" stroke-miterlimit="10" d="M 314.546875 61.632812 C 314.546875 64.003906 310.996094 64.003906 310.996094 61.632812 C 310.996094 59.265625 314.546875 59.265625 314.546875 61.632812 "/>
<path fill-rule="nonzero" fill="rgb(0%, 0%, 0%)" fill-opacity="0.698039" stroke-width="0.644238" stroke-linecap="round" stroke-linejoin="round" stroke="rgb(0%, 0%, 0%)" stroke-opacity="0.698039" stroke-miterlimit="10" d="M 314.546875 132.449219 C 314.546875 134.820312 310.996094 134.820312 310.996094 132.449219 C 310.996094 130.078125 314.546875 130.078125 314.546875 132.449219 "/>
<path fill-rule="nonzero" fill="rgb(0%, 0%, 0%)" fill-opacity="0.698039" stroke-width="0.644238" stroke-linecap="round" stroke-linejoin="round" stroke="rgb(0%, 0%, 0%)" stroke-opacity="0.698039" stroke-miterlimit="10" d="M 284.757812 122.332031 C 284.757812 124.703125 281.203125 124.703125 281.203125 122.332031 C 281.203125 119.964844 284.757812 119.964844 284.757812 122.332031 "/>
<path fill-rule="nonzero" fill="rgb(0%, 0%, 0%)" fill-opacity="0.698039" stroke-width="0.644238" stroke-linecap="round" stroke-linejoin="round" stroke="rgb(0%, 0%, 0%)" stroke-opacity="0.698039" stroke-miterlimit="10" d="M 195.386719 91.984375 C 195.386719 94.351562 191.832031 94.351562 191.832031 91.984375 C 191.832031 89.613281 195.386719 89.613281 195.386719 91.984375 "/>
<path fill-rule="nonzero" fill="rgb(0%, 0%, 0%)" fill-opacity="0.698039" stroke-width="0.644238" stroke-linecap="round" stroke-linejoin="round" stroke="rgb(0%, 0%, 0%)" stroke-opacity="0.698039" stroke-miterlimit="10" d="M 344.339844 61.632812 C 344.339844 64.003906 340.785156 64.003906 340.785156 61.632812 C 340.785156 59.265625 344.339844 59.265625 344.339844 61.632812 "/>
<path fill-rule="nonzero" fill="rgb(0%, 0%, 0%)" fill-opacity="0.698039" stroke-width="0.644238" stroke-linecap="round" stroke-linejoin="round" stroke="rgb(0%, 0%, 0%)" stroke-opacity="0.698039" stroke-miterlimit="10" d="M 195.386719 122.332031 C 195.386719 124.703125 191.832031 124.703125 191.832031 122.332031 C 191.832031 119.964844 195.386719 119.964844 195.386719 122.332031 "/>
<path fill-rule="nonzero" fill="rgb(0%, 0%, 0%)" fill-opacity="0.698039" stroke-width="0.644238" stroke-linecap="round" stroke-linejoin="round" stroke="rgb(0%, 0%, 0%)" stroke-opacity="0.698039" stroke-miterlimit="10" d="M 374.128906 81.867188 C 374.128906 84.238281 370.578125 84.238281 370.578125 81.867188 C 370.578125 79.496094 374.128906 79.496094 374.128906 81.867188 "/>
<path fill-rule="nonzero" fill="rgb(0%, 0%, 0%)" fill-opacity="0.698039" stroke-width="0.644238" stroke-linecap="round" stroke-linejoin="round" stroke="rgb(0%, 0%, 0%)" stroke-opacity="0.698039" stroke-miterlimit="10" d="M 374.128906 91.984375 C 374.128906 94.351562 370.578125 94.351562 370.578125 91.984375 C 370.578125 89.613281 374.128906 89.613281 374.128906 91.984375 "/>
<path fill-rule="nonzero" fill="rgb(0%, 0%, 0%)" fill-opacity="0.698039" stroke-width="0.644238" stroke-linecap="round" stroke-linejoin="round" stroke="rgb(0%, 0%, 0%)" stroke-opacity="0.698039" stroke-miterlimit="10" d="M 254.96875 61.632812 C 254.96875 64.003906 251.414062 64.003906 251.414062 61.632812 C 251.414062 59.265625 254.96875 59.265625 254.96875 61.632812 "/>
<path fill-rule="nonzero" fill="rgb(0%, 0%, 0%)" fill-opacity="0.698039" stroke-width="0.644238" stroke-linecap="round" stroke-linejoin="round" stroke="rgb(0%, 0%, 0%)" stroke-opacity="0.698039" stroke-miterlimit="10" d="M 344.339844 132.449219 C 344.339844 134.820312 340.785156 134.820312 340.785156 132.449219 C 340.785156 130.078125 344.339844 130.078125 344.339844 132.449219 "/>
<path fill-rule="nonzero" fill="rgb(0%, 0%, 0%)" fill-opacity="0.698039" stroke-width="0.644238" stroke-linecap="round" stroke-linejoin="round" stroke="rgb(0%, 0%, 0%)" stroke-opacity="0.698039" stroke-miterlimit="10" d="M 344.339844 132.449219 C 344.339844 134.820312 340.785156 134.820312 340.785156 132.449219 C 340.785156 130.078125 344.339844 130.078125 344.339844 132.449219 "/>
<path fill-rule="nonzero" fill="rgb(0%, 0%, 0%)" fill-opacity="0.698039" stroke-width="0.644238" stroke-linecap="round" stroke-linejoin="round" stroke="rgb(0%, 0%, 0%)" stroke-opacity="0.698039" stroke-miterlimit="10" d="M 374.128906 91.984375 C 374.128906 94.351562 370.578125 94.351562 370.578125 91.984375 C 370.578125 89.613281 374.128906 89.613281 374.128906 91.984375 "/>
<path fill-rule="nonzero" fill="rgb(0%, 0%, 0%)" fill-opacity="0.698039" stroke-width="0.644238" stroke-linecap="round" stroke-linejoin="round" stroke="rgb(0%, 0%, 0%)" stroke-opacity="0.698039" stroke-miterlimit="10" d="M 344.339844 112.214844 C 344.339844 114.585938 340.785156 114.585938 340.785156 112.214844 C 340.785156 109.847656 344.339844 109.847656 344.339844 112.214844 "/>
<path fill-rule="nonzero" fill="rgb(0%, 0%, 0%)" fill-opacity="0.698039" stroke-width="0.644238" stroke-linecap="round" stroke-linejoin="round" stroke="rgb(0%, 0%, 0%)" stroke-opacity="0.698039" stroke-miterlimit="10" d="M 314.546875 91.984375 C 314.546875 94.351562 310.996094 94.351562 310.996094 91.984375 C 310.996094 89.613281 314.546875 89.613281 314.546875 91.984375 "/>
<path fill-rule="nonzero" fill="rgb(0%, 0%, 0%)" fill-opacity="0.698039" stroke-width="0.644238" stroke-linecap="round" stroke-linejoin="round" stroke="rgb(0%, 0%, 0%)" stroke-opacity="0.698039" stroke-miterlimit="10" d="M 254.96875 81.867188 C 254.96875 84.238281 251.414062 84.238281 251.414062 81.867188 C 251.414062 79.496094 254.96875 79.496094 254.96875 81.867188 "/>
<path fill-rule="nonzero" fill="rgb(0%, 0%, 0%)" fill-opacity="0.698039" stroke-width="0.644238" stroke-linecap="round" stroke-linejoin="round" stroke="rgb(0%, 0%, 0%)" stroke-opacity="0.698039" stroke-miterlimit="10" d="M 344.339844 41.402344 C 344.339844 43.769531 340.785156 43.769531 340.785156 41.402344 C 340.785156 39.03125 344.339844 39.03125 344.339844 41.402344 "/>
<path fill-rule="nonzero" fill="rgb(0%, 0%, 0%)" fill-opacity="0.698039" stroke-width="0.644238" stroke-linecap="round" stroke-linejoin="round" stroke="rgb(0%, 0%, 0%)" stroke-opacity="0.698039" stroke-miterlimit="10" d="M 344.339844 112.214844 C 344.339844 114.585938 340.785156 114.585938 340.785156 112.214844 C 340.785156 109.847656 344.339844 109.847656 344.339844 112.214844 "/>
<path fill-rule="nonzero" fill="rgb(0%, 0%, 0%)" fill-opacity="0.698039" stroke-width="0.644238" stroke-linecap="round" stroke-linejoin="round" stroke="rgb(0%, 0%, 0%)" stroke-opacity="0.698039" stroke-miterlimit="10" d="M 374.128906 132.449219 C 374.128906 134.820312 370.578125 134.820312 370.578125 132.449219 C 370.578125 130.078125 374.128906 130.078125 374.128906 132.449219 "/>
<path fill-rule="nonzero" fill="rgb(0%, 0%, 0%)" fill-opacity="0.698039" stroke-width="0.644238" stroke-linecap="round" stroke-linejoin="round" stroke="rgb(0%, 0%, 0%)" stroke-opacity="0.698039" stroke-miterlimit="10" d="M 314.546875 61.632812 C 314.546875 64.003906 310.996094 64.003906 310.996094 61.632812 C 310.996094 59.265625 314.546875 59.265625 314.546875 61.632812 "/>
<path fill-rule="nonzero" fill="rgb(0%, 0%, 0%)" fill-opacity="0.698039" stroke-width="0.644238" stroke-linecap="round" stroke-linejoin="round" stroke="rgb(0%, 0%, 0%)" stroke-opacity="0.698039" stroke-miterlimit="10" d="M 284.757812 61.632812 C 284.757812 64.003906 281.203125 64.003906 281.203125 61.632812 C 281.203125 59.265625 284.757812 59.265625 284.757812 61.632812 "/>
<path fill-rule="nonzero" fill="rgb(0%, 0%, 0%)" fill-opacity="0.698039" stroke-width="0.644238" stroke-linecap="round" stroke-linejoin="round" stroke="rgb(0%, 0%, 0%)" stroke-opacity="0.698039" stroke-miterlimit="10" d="M 374.128906 81.867188 C 374.128906 84.238281 370.578125 84.238281 370.578125 81.867188 C 370.578125 79.496094 374.128906 79.496094 374.128906 81.867188 "/>
<path fill-rule="nonzero" fill="rgb(0%, 0%, 0%)" fill-opacity="0.698039" stroke-width="0.644238" stroke-linecap="round" stroke-linejoin="round" stroke="rgb(0%, 0%, 0%)" stroke-opacity="0.698039" stroke-miterlimit="10" d="M 344.339844 71.75 C 344.339844 74.121094 340.785156 74.121094 340.785156 71.75 C 340.785156 69.382812 344.339844 69.382812 344.339844 71.75 "/>
<path fill-rule="nonzero" fill="rgb(0%, 0%, 0%)" fill-opacity="0.698039" stroke-width="0.644238" stroke-linecap="round" stroke-linejoin="round" stroke="rgb(0%, 0%, 0%)" stroke-opacity="0.698039" stroke-miterlimit="10" d="M 284.757812 132.449219 C 284.757812 134.820312 281.203125 134.820312 281.203125 132.449219 C 281.203125 130.078125 284.757812 130.078125 284.757812 132.449219 "/>
<path fill-rule="nonzero" fill="rgb(0%, 0%, 0%)" fill-opacity="0.698039" stroke-width="0.644238" stroke-linecap="round" stroke-linejoin="round" stroke="rgb(0%, 0%, 0%)" stroke-opacity="0.698039" stroke-miterlimit="10" d="M 374.128906 81.867188 C 374.128906 84.238281 370.578125 84.238281 370.578125 81.867188 C 370.578125 79.496094 374.128906 79.496094 374.128906 81.867188 "/>
<path fill-rule="nonzero" fill="rgb(0%, 0%, 0%)" fill-opacity="0.698039" stroke-width="0.644238" stroke-linecap="round" stroke-linejoin="round" stroke="rgb(0%, 0%, 0%)" stroke-opacity="0.698039" stroke-miterlimit="10" d="M 344.339844 61.632812 C 344.339844 64.003906 340.785156 64.003906 340.785156 61.632812 C 340.785156 59.265625 344.339844 59.265625 344.339844 61.632812 "/>
<path fill-rule="nonzero" fill="rgb(0%, 0%, 0%)" fill-opacity="0.698039" stroke-width="0.644238" stroke-linecap="round" stroke-linejoin="round" stroke="rgb(0%, 0%, 0%)" stroke-opacity="0.698039" stroke-miterlimit="10" d="M 135.804688 122.332031 C 135.804688 124.703125 132.25 124.703125 132.25 122.332031 C 132.25 119.964844 135.804688 119.964844 135.804688 122.332031 "/>
<path fill-rule="nonzero" fill="rgb(0%, 0%, 0%)" fill-opacity="0.698039" stroke-width="0.644238" stroke-linecap="round" stroke-linejoin="round" stroke="rgb(0%, 0%, 0%)" stroke-opacity="0.698039" stroke-miterlimit="10" d="M 314.546875 61.632812 C 314.546875 64.003906 310.996094 64.003906 310.996094 61.632812 C 310.996094 59.265625 314.546875 59.265625 314.546875 61.632812 "/>
<path fill-rule="nonzero" fill="rgb(60%, 60%, 60%)" fill-opacity="0.4" d="M 134.027344 105.449219 L 137.421875 105.054688 L 140.8125 104.660156 L 147.601562 103.871094 L 150.996094 103.472656 L 154.390625 103.078125 L 157.785156 102.679688 L 161.175781 102.28125 L 171.359375 101.085938 L 178.148438 100.28125 L 181.539062 99.878906 L 188.328125 99.074219 L 198.511719 97.855469 L 201.90625 97.445312 L 205.296875 97.035156 L 208.691406 96.625 L 215.480469 95.796875 L 222.269531 94.960938 L 225.660156 94.539062 L 229.054688 94.117188 L 235.84375 93.265625 L 239.238281 92.835938 L 242.632812 92.402344 L 246.023438 91.964844 L 249.417969 91.523438 L 252.8125 91.078125 L 256.207031 90.628906 L 259.601562 90.175781 L 262.996094 89.71875 L 266.386719 89.253906 L 269.78125 88.785156 L 273.175781 88.308594 L 276.570312 87.824219 L 279.964844 87.335938 L 283.359375 86.835938 L 286.75 86.328125 L 290.144531 85.8125 L 293.539062 85.289062 L 296.933594 84.75 L 300.328125 84.203125 L 303.722656 83.644531 L 307.113281 83.074219 L 310.507812 82.492188 L 313.902344 81.894531 L 317.296875 81.285156 L 320.691406 80.664062 L 324.085938 80.027344 L 327.476562 79.378906 L 330.871094 78.71875 L 334.265625 78.046875 L 337.660156 77.363281 L 341.054688 76.667969 L 344.449219 75.960938 L 347.84375 75.242188 L 351.234375 74.515625 L 354.628906 73.78125 L 358.023438 73.039062 L 361.417969 72.285156 L 364.8125 71.527344 L 368.207031 70.761719 L 371.597656 69.988281 L 374.992188 69.210938 L 378.386719 68.429688 L 381.78125 67.640625 L 388.570312 66.054688 L 391.960938 65.253906 L 398.75 63.644531 L 402.144531 62.832031 L 402.144531 77.460938 L 398.75 77.890625 L 391.960938 78.757812 L 388.570312 79.199219 L 385.175781 79.640625 L 378.386719 80.539062 L 374.992188 80.996094 L 371.597656 81.460938 L 368.207031 81.925781 L 364.8125 82.398438 L 361.417969 82.878906 L 358.023438 83.367188 L 354.628906 83.863281 L 351.234375 84.367188 L 347.84375 84.878906 L 344.449219 85.402344 L 341.054688 85.933594 L 337.660156 86.476562 L 334.265625 87.03125 L 330.871094 87.597656 L 327.476562 88.175781 L 324.085938 88.769531 L 320.691406 89.375 L 317.296875 89.992188 L 313.902344 90.621094 L 310.507812 91.265625 L 307.113281 91.917969 L 303.722656 92.589844 L 300.328125 93.269531 L 296.933594 93.960938 L 293.539062 94.664062 L 290.144531 95.375 L 286.75 96.097656 L 283.359375 96.832031 L 279.964844 97.574219 L 276.570312 98.320312 L 273.175781 99.078125 L 269.78125 99.839844 L 266.386719 100.609375 L 262.996094 101.386719 L 259.601562 102.167969 L 256.207031 102.953125 L 252.8125 103.742188 L 246.023438 105.335938 L 242.632812 106.140625 L 239.238281 106.945312 L 235.84375 107.753906 L 229.054688 109.378906 L 225.660156 110.195312 L 222.269531 111.015625 L 215.480469 112.65625 L 212.085938 113.480469 L 205.296875 115.136719 L 201.90625 115.964844 L 188.328125 119.292969 L 181.539062 120.964844 L 178.148438 121.800781 L 171.359375 123.480469 L 167.964844 124.316406 L 164.570312 125.160156 L 161.175781 126 L 157.785156 126.839844 L 150.996094 128.527344 L 147.601562 129.367188 L 140.8125 131.054688 L 137.421875 131.902344 L 134.027344 132.746094 Z M 134.027344 105.449219 "/>
<path fill="none" stroke-width="1.939961" stroke-linecap="butt" stroke-linejoin="round" stroke="rgb(10.588235%, 47.058824%, 21.568627%)" stroke-opacity="1" stroke-miterlimit="10" d="M 134.027344 119.097656 L 137.421875 118.476562 L 140.8125 117.859375 L 144.207031 117.238281 L 147.601562 116.621094 L 154.390625 115.378906 L 157.785156 114.761719 L 161.175781 114.140625 L 164.570312 113.519531 L 167.964844 112.902344 L 171.359375 112.28125 L 174.753906 111.664062 L 178.148438 111.042969 L 181.539062 110.421875 L 184.933594 109.804688 L 191.722656 108.5625 L 195.117188 107.945312 L 198.511719 107.324219 L 201.90625 106.707031 L 205.296875 106.085938 L 208.691406 105.464844 L 212.085938 104.847656 L 218.875 103.605469 L 222.269531 102.988281 L 225.660156 102.367188 L 229.054688 101.75 L 235.84375 100.507812 L 239.238281 99.890625 L 242.632812 99.269531 L 246.023438 98.648438 L 249.417969 98.03125 L 252.8125 97.410156 L 256.207031 96.792969 L 262.996094 95.550781 L 266.386719 94.933594 L 273.175781 93.691406 L 276.570312 93.074219 L 279.964844 92.453125 L 283.359375 91.835938 L 286.75 91.214844 L 290.144531 90.59375 L 293.539062 89.976562 L 300.328125 88.734375 L 303.722656 88.117188 L 307.113281 87.496094 L 310.507812 86.878906 L 317.296875 85.636719 L 320.691406 85.019531 L 324.085938 84.398438 L 327.476562 83.777344 L 330.871094 83.160156 L 334.265625 82.539062 L 337.660156 81.921875 L 344.449219 80.679688 L 347.84375 80.0625 L 351.234375 79.441406 L 354.628906 78.820312 L 358.023438 78.203125 L 361.417969 77.582031 L 364.8125 76.964844 L 368.207031 76.34375 L 371.597656 75.722656 L 374.992188 75.105469 L 378.386719 74.484375 L 381.78125 73.867188 L 388.570312 72.625 L 391.960938 72.007812 L 398.75 70.765625 L 402.144531 70.148438 "/>
<g fill="rgb(30.196078%, 30.196078%, 30.196078%)" fill-opacity="1">
<use xlink:href="#glyph-0-0" x="16.734375" y="136.027344"/>
</g>
<g fill="rgb(30.196078%, 30.196078%, 30.196078%)" fill-opacity="1">
<use xlink:href="#glyph-0-1" x="16.734375" y="105.679688"/>
</g>
<g fill="rgb(30.196078%, 30.196078%, 30.196078%)" fill-opacity="1">
<use xlink:href="#glyph-0-2" x="16.734375" y="75.328125"/>
</g>
<g fill="rgb(30.196078%, 30.196078%, 30.196078%)" fill-opacity="1">
<use xlink:href="#glyph-0-3" x="16.734375" y="44.980469"/>
</g>
<g fill="rgb(30.196078%, 30.196078%, 30.196078%)" fill-opacity="1">
<use xlink:href="#glyph-0-4" x="16.734375" y="14.628906"/>
</g>
<g fill="rgb(30.196078%, 30.196078%, 30.196078%)" fill-opacity="1">
<use xlink:href="#glyph-0-0" x="41.871094" y="150.160156"/>
</g>
<g fill="rgb(30.196078%, 30.196078%, 30.196078%)" fill-opacity="1">
<use xlink:href="#glyph-0-1" x="131.246094" y="150.160156"/>
</g>
<g fill="rgb(30.196078%, 30.196078%, 30.196078%)" fill-opacity="1">
<use xlink:href="#glyph-0-2" x="220.617188" y="150.160156"/>
</g>
<g fill="rgb(30.196078%, 30.196078%, 30.196078%)" fill-opacity="1">
<use xlink:href="#glyph-0-3" x="309.992188" y="150.160156"/>
</g>
<g fill="rgb(30.196078%, 30.196078%, 30.196078%)" fill-opacity="1">
<use xlink:href="#glyph-0-4" x="399.363281" y="150.160156"/>
</g>
<g fill="rgb(0%, 0%, 0%)" fill-opacity="1">
<use xlink:href="#glyph-0-5" x="176.984375" y="161.914062"/>
<use xlink:href="#glyph-0-6" x="179.762695" y="161.914062"/>
<use xlink:href="#glyph-0-7" x="185.324219" y="161.914062"/>
<use xlink:href="#glyph-0-8" x="188.102539" y="161.914062"/>
<use xlink:href="#glyph-0-9" x="193.664062" y="161.914062"/>
<use xlink:href="#glyph-0-10" x="196.994141" y="161.914062"/>
<use xlink:href="#glyph-0-11" x="205.324219" y="161.914062"/>
<use xlink:href="#glyph-0-12" x="210.885742" y="161.914062"/>
<use xlink:href="#glyph-0-13" x="213.664062" y="161.914062"/>
<use xlink:href="#glyph-0-8" x="215.885742" y="161.914062"/>
<use xlink:href="#glyph-0-6" x="221.447266" y="161.914062"/>
<use xlink:href="#glyph-0-14" x="227.008789" y="161.914062"/>
<use xlink:href="#glyph-0-15" x="232.008789" y="161.914062"/>
<use xlink:href="#glyph-0-16" x="237.570312" y="161.914062"/>
<use xlink:href="#glyph-0-11" x="243.131836" y="161.914062"/>
<use xlink:href="#glyph-0-17" x="248.693359" y="161.914062"/>
<use xlink:href="#glyph-0-13" x="250.915039" y="161.914062"/>
<use xlink:href="#glyph-0-12" x="253.136719" y="161.914062"/>
<use xlink:href="#glyph-0-11" x="255.915039" y="161.914062"/>
<use xlink:href="#glyph-0-18" x="261.476562" y="161.914062"/>
<use xlink:href="#glyph-0-12" x="267.038086" y="161.914062"/>
</g>
<g fill="rgb(0%, 0%, 0%)" fill-opacity="1">
<use xlink:href="#glyph-1-0" x="12.140625" y="97.878906"/>
<use xlink:href="#glyph-1-1" x="12.140625" y="91.208984"/>
<use xlink:href="#glyph-1-2" x="12.140625" y="85.647461"/>
<use xlink:href="#glyph-1-3" x="12.140625" y="80.085938"/>
<use xlink:href="#glyph-1-1" x="12.140625" y="77.307617"/>
<use xlink:href="#glyph-1-4" x="12.140625" y="71.746094"/>
<use xlink:href="#glyph-1-5" x="12.140625" y="66.18457"/>
<use xlink:href="#glyph-1-6" x="12.140625" y="61.18457"/>
<use xlink:href="#glyph-1-7" x="12.140625" y="58.962891"/>
<use xlink:href="#glyph-1-8" x="12.140625" y="53.962891"/>
<use xlink:href="#glyph-1-9" x="12.140625" y="48.401367"/>
</g>
</svg>
