<?xml version="1.0" encoding="UTF-8"?>
<svg xmlns="http://www.w3.org/2000/svg" xmlns:xlink="http://www.w3.org/1999/xlink" width="425pt" height="169pt" viewBox="0 0 425 169">
<defs>
<g>
<g id="glyph-0-0">
<path d="M 0.421875 -1.890625 L 1.296875 -2 C 1.398438 -1.507812 1.570312 -1.148438 1.8125 -0.921875 C 2.050781 -0.703125 2.347656 -0.59375 2.703125 -0.59375 C 3.117188 -0.59375 3.46875 -0.734375 3.75 -1.015625 C 4.03125 -1.304688 4.171875 -1.664062 4.171875 -2.09375 C 4.171875 -2.5 4.039062 -2.832031 3.78125 -3.09375 C 3.519531 -3.351562 3.1875 -3.484375 2.78125 -3.484375 C 2.613281 -3.484375 2.40625 -3.453125 2.15625 -3.390625 L 2.25 -4.15625 C 2.3125 -4.15625 2.359375 -4.15625 2.390625 -4.15625 C 2.765625 -4.15625 3.101562 -4.25 3.40625 -4.4375 C 3.707031 -4.632812 3.859375 -4.9375 3.859375 -5.34375 C 3.859375 -5.664062 3.75 -5.929688 3.53125 -6.140625 C 3.3125 -6.359375 3.03125 -6.46875 2.6875 -6.46875 C 2.34375 -6.46875 2.054688 -6.359375 1.828125 -6.140625 C 1.597656 -5.929688 1.453125 -5.609375 1.390625 -5.171875 L 0.515625 -5.328125 C 0.617188 -5.921875 0.859375 -6.378906 1.234375 -6.703125 C 1.617188 -7.023438 2.09375 -7.1875 2.65625 -7.1875 C 3.050781 -7.1875 3.410156 -7.101562 3.734375 -6.9375 C 4.066406 -6.769531 4.316406 -6.539062 4.484375 -6.25 C 4.660156 -5.957031 4.75 -5.648438 4.75 -5.328125 C 4.75 -5.015625 4.664062 -4.734375 4.5 -4.484375 C 4.34375 -4.234375 4.097656 -4.03125 3.765625 -3.875 C 4.191406 -3.78125 4.519531 -3.578125 4.75 -3.265625 C 4.988281 -2.960938 5.109375 -2.578125 5.109375 -2.109375 C 5.109375 -1.484375 4.878906 -0.953125 4.421875 -0.515625 C 3.960938 -0.0859375 3.390625 0.125 2.703125 0.125 C 2.066406 0.125 1.539062 -0.0625 1.125 -0.4375 C 0.71875 -0.8125 0.484375 -1.296875 0.421875 -1.890625 Z M 0.421875 -1.890625 "/>
</g>
<g id="glyph-0-1">
<path d="M 3.234375 0 L 3.234375 -1.71875 L 0.125 -1.71875 L 0.125 -2.515625 L 3.390625 -7.15625 L 4.109375 -7.15625 L 4.109375 -2.515625 L 5.078125 -2.515625 L 5.078125 -1.71875 L 4.109375 -1.71875 L 4.109375 0 Z M 3.234375 -2.515625 L 3.234375 -5.75 L 0.984375 -2.515625 Z M 3.234375 -2.515625 "/>
</g>
<g id="glyph-0-2">
<path d="M 2.34375 2.109375 C 1.851562 1.492188 1.441406 0.773438 1.109375 -0.046875 C 0.773438 -0.867188 0.609375 -1.71875 0.609375 -2.59375 C 0.609375 -3.363281 0.734375 -4.101562 0.984375 -4.8125 C 1.273438 -5.644531 1.726562 -6.46875 2.34375 -7.28125 L 2.96875 -7.28125 C 2.570312 -6.601562 2.3125 -6.117188 2.1875 -5.828125 C 1.988281 -5.378906 1.832031 -4.910156 1.71875 -4.421875 C 1.582031 -3.816406 1.515625 -3.207031 1.515625 -2.59375 C 1.515625 -1.019531 2 0.546875 2.96875 2.109375 Z M 2.34375 2.109375 "/>
</g>
<g id="glyph-0-3">
<path d="M 5.03125 -0.84375 L 5.03125 0 L 0.296875 0 C 0.296875 -0.207031 0.332031 -0.410156 0.40625 -0.609375 C 0.53125 -0.929688 0.722656 -1.25 0.984375 -1.5625 C 1.242188 -1.875 1.628906 -2.234375 2.140625 -2.640625 C 2.910156 -3.285156 3.429688 -3.789062 3.703125 -4.15625 C 3.984375 -4.53125 4.125 -4.882812 4.125 -5.21875 C 4.125 -5.570312 4 -5.863281 3.75 -6.09375 C 3.5 -6.332031 3.175781 -6.453125 2.78125 -6.453125 C 2.351562 -6.453125 2.007812 -6.328125 1.75 -6.078125 C 1.5 -5.828125 1.375 -5.476562 1.375 -5.03125 L 0.46875 -5.125 C 0.53125 -5.789062 0.757812 -6.300781 1.15625 -6.65625 C 1.5625 -7.007812 2.109375 -7.1875 2.796875 -7.1875 C 3.484375 -7.1875 4.023438 -6.992188 4.421875 -6.609375 C 4.828125 -6.234375 5.03125 -5.765625 5.03125 -5.203125 C 5.03125 -4.910156 4.96875 -4.625 4.84375 -4.34375 C 4.726562 -4.070312 4.535156 -3.78125 4.265625 -3.46875 C 3.992188 -3.164062 3.539062 -2.75 2.90625 -2.21875 C 2.382812 -1.78125 2.046875 -1.476562 1.890625 -1.3125 C 1.742188 -1.15625 1.625 -1 1.53125 -0.84375 Z M 5.03125 -0.84375 "/>
</g>
<g id="glyph-0-4">
<path d="M 0.421875 -1.875 L 1.34375 -1.953125 C 1.40625 -1.503906 1.5625 -1.164062 1.8125 -0.9375 C 2.0625 -0.707031 2.363281 -0.59375 2.71875 -0.59375 C 3.132812 -0.59375 3.488281 -0.753906 3.78125 -1.078125 C 4.082031 -1.398438 4.234375 -1.820312 4.234375 -2.34375 C 4.234375 -2.84375 4.09375 -3.238281 3.8125 -3.53125 C 3.53125 -3.820312 3.160156 -3.96875 2.703125 -3.96875 C 2.421875 -3.96875 2.164062 -3.898438 1.9375 -3.765625 C 1.707031 -3.640625 1.523438 -3.476562 1.390625 -3.28125 L 0.578125 -3.390625 L 1.265625 -7.0625 L 4.828125 -7.0625 L 4.828125 -6.21875 L 1.96875 -6.21875 L 1.578125 -4.296875 C 2.015625 -4.597656 2.46875 -4.75 2.9375 -4.75 C 3.5625 -4.75 4.085938 -4.53125 4.515625 -4.09375 C 4.941406 -3.664062 5.15625 -3.109375 5.15625 -2.421875 C 5.15625 -1.773438 4.96875 -1.21875 4.59375 -0.75 C 4.132812 -0.164062 3.507812 0.125 2.71875 0.125 C 2.0625 0.125 1.523438 -0.0546875 1.109375 -0.421875 C 0.703125 -0.785156 0.472656 -1.269531 0.421875 -1.875 Z M 0.421875 -1.875 "/>
</g>
<g id="glyph-0-5">
<path d="M 0.90625 0 L 0.90625 -1 L 1.90625 -1 L 1.90625 0 Z M 0.90625 0 "/>
</g>
<g id="glyph-0-6">
<path d="M 0.578125 -5.4375 C 0.578125 -5.945312 0.707031 -6.378906 0.96875 -6.734375 C 1.226562 -7.097656 1.597656 -7.28125 2.078125 -7.28125 C 2.535156 -7.28125 2.910156 -7.117188 3.203125 -6.796875 C 3.492188 -6.472656 3.640625 -6.003906 3.640625 -5.390625 C 3.640625 -4.785156 3.488281 -4.316406 3.1875 -3.984375 C 2.894531 -3.660156 2.53125 -3.5 2.09375 -3.5 C 1.664062 -3.5 1.304688 -3.660156 1.015625 -3.984375 C 0.722656 -4.304688 0.578125 -4.789062 0.578125 -5.4375 Z M 2.109375 -6.671875 C 1.890625 -6.671875 1.707031 -6.578125 1.5625 -6.390625 C 1.414062 -6.203125 1.34375 -5.859375 1.34375 -5.359375 C 1.34375 -4.890625 1.414062 -4.5625 1.5625 -4.375 C 1.707031 -4.195312 1.890625 -4.109375 2.109375 -4.109375 C 2.328125 -4.109375 2.507812 -4.203125 2.65625 -4.390625 C 2.800781 -4.578125 2.875 -4.921875 2.875 -5.421875 C 2.875 -5.878906 2.800781 -6.203125 2.65625 -6.390625 C 2.507812 -6.578125 2.328125 -6.671875 2.109375 -6.671875 Z M 2.109375 0.265625 L 6.03125 -7.28125 L 6.75 -7.28125 L 2.84375 0.265625 Z M 5.203125 -1.6875 C 5.203125 -2.195312 5.332031 -2.628906 5.59375 -2.984375 C 5.851562 -3.335938 6.226562 -3.515625 6.71875 -3.515625 C 7.164062 -3.515625 7.535156 -3.351562 7.828125 -3.03125 C 8.128906 -2.71875 8.28125 -2.25 8.28125 -1.625 C 8.28125 -1.019531 8.128906 -0.550781 7.828125 -0.21875 C 7.535156 0.101562 7.164062 0.265625 6.71875 0.265625 C 6.289062 0.265625 5.929688 0.101562 5.640625 -0.21875 C 5.347656 -0.539062 5.203125 -1.03125 5.203125 -1.6875 Z M 6.75 -2.921875 C 6.519531 -2.921875 6.332031 -2.820312 6.1875 -2.625 C 6.050781 -2.4375 5.984375 -2.09375 5.984375 -1.59375 C 5.984375 -1.132812 6.054688 -0.8125 6.203125 -0.625 C 6.347656 -0.4375 6.523438 -0.34375 6.734375 -0.34375 C 6.960938 -0.34375 7.148438 -0.4375 7.296875 -0.625 C 7.441406 -0.8125 7.515625 -1.15625 7.515625 -1.65625 C 7.515625 -2.125 7.441406 -2.453125 7.296875 -2.640625 C 7.148438 -2.828125 6.96875 -2.921875 6.75 -2.921875 Z M 6.75 -2.921875 "/>
</g>
<g id="glyph-0-7">
<path d="M 1.234375 2.109375 L 0.609375 2.109375 C 1.578125 0.546875 2.0625 -1.019531 2.0625 -2.59375 C 2.0625 -3.195312 1.992188 -3.800781 1.859375 -4.40625 C 1.742188 -4.894531 1.585938 -5.363281 1.390625 -5.8125 C 1.265625 -6.101562 1.003906 -6.59375 0.609375 -7.28125 L 1.234375 -7.28125 C 1.847656 -6.46875 2.300781 -5.644531 2.59375 -4.8125 C 2.84375 -4.101562 2.96875 -3.363281 2.96875 -2.59375 C 2.96875 -1.71875 2.796875 -0.867188 2.453125 -0.046875 C 2.117188 0.773438 1.710938 1.492188 1.234375 2.109375 Z M 1.234375 2.109375 "/>
</g>
<g id="glyph-1-0">
<path d="M 0.328125 -2.828125 C 0.328125 -3.503906 0.394531 -4.046875 0.53125 -4.453125 C 0.675781 -4.867188 0.882812 -5.1875 1.15625 -5.40625 C 1.4375 -5.632812 1.785156 -5.75 2.203125 -5.75 C 2.503906 -5.75 2.769531 -5.6875 3 -5.5625 C 3.238281 -5.4375 3.429688 -5.257812 3.578125 -5.03125 C 3.734375 -4.800781 3.851562 -4.515625 3.9375 -4.171875 C 4.019531 -3.835938 4.0625 -3.390625 4.0625 -2.828125 C 4.0625 -2.148438 3.992188 -1.601562 3.859375 -1.1875 C 3.722656 -0.78125 3.515625 -0.460938 3.234375 -0.234375 C 2.960938 -0.015625 2.617188 0.09375 2.203125 0.09375 C 1.648438 0.09375 1.21875 -0.101562 0.90625 -0.5 C 0.519531 -0.976562 0.328125 -1.753906 0.328125 -2.828125 Z M 1.0625 -2.828125 C 1.0625 -1.890625 1.171875 -1.265625 1.390625 -0.953125 C 1.609375 -0.640625 1.878906 -0.484375 2.203125 -0.484375 C 2.523438 -0.484375 2.796875 -0.640625 3.015625 -0.953125 C 3.234375 -1.265625 3.34375 -1.890625 3.34375 -2.828125 C 3.34375 -3.765625 3.234375 -4.390625 3.015625 -4.703125 C 2.796875 -5.015625 2.519531 -5.171875 2.1875 -5.171875 C 1.863281 -5.171875 1.609375 -5.035156 1.421875 -4.765625 C 1.179688 -4.410156 1.0625 -3.765625 1.0625 -2.828125 Z M 1.0625 -2.828125 "/>
</g>
<g id="glyph-1-1">
<path d="M 4.03125 -0.671875 L 4.03125 0 L 0.25 0 C 0.238281 -0.164062 0.265625 -0.328125 0.328125 -0.484375 C 0.421875 -0.742188 0.570312 -1 0.78125 -1.25 C 1 -1.5 1.304688 -1.789062 1.703125 -2.125 C 2.328125 -2.632812 2.75 -3.035156 2.96875 -3.328125 C 3.1875 -3.628906 3.296875 -3.910156 3.296875 -4.171875 C 3.296875 -4.453125 3.195312 -4.6875 3 -4.875 C 2.800781 -5.070312 2.539062 -5.171875 2.21875 -5.171875 C 1.882812 -5.171875 1.613281 -5.066406 1.40625 -4.859375 C 1.207031 -4.660156 1.101562 -4.378906 1.09375 -4.015625 L 0.375 -4.09375 C 0.425781 -4.632812 0.613281 -5.046875 0.9375 -5.328125 C 1.257812 -5.609375 1.691406 -5.75 2.234375 -5.75 C 2.785156 -5.75 3.21875 -5.597656 3.53125 -5.296875 C 3.851562 -4.992188 4.015625 -4.613281 4.015625 -4.15625 C 4.015625 -3.925781 3.96875 -3.703125 3.875 -3.484375 C 3.78125 -3.265625 3.625 -3.03125 3.40625 -2.78125 C 3.195312 -2.539062 2.835938 -2.207031 2.328125 -1.78125 C 1.910156 -1.425781 1.640625 -1.1875 1.515625 -1.0625 C 1.398438 -0.9375 1.300781 -0.804688 1.21875 -0.671875 Z M 4.03125 -0.671875 "/>
</g>
<g id="glyph-1-2">
<path d="M 0.328125 -1.5 L 1.078125 -1.5625 C 1.128906 -1.207031 1.253906 -0.9375 1.453125 -0.75 C 1.648438 -0.570312 1.890625 -0.484375 2.171875 -0.484375 C 2.515625 -0.484375 2.800781 -0.609375 3.03125 -0.859375 C 3.269531 -1.117188 3.390625 -1.457031 3.390625 -1.875 C 3.390625 -2.28125 3.273438 -2.597656 3.046875 -2.828125 C 2.816406 -3.054688 2.519531 -3.171875 2.15625 -3.171875 C 1.9375 -3.171875 1.734375 -3.117188 1.546875 -3.015625 C 1.367188 -2.921875 1.226562 -2.789062 1.125 -2.625 L 0.453125 -2.703125 L 1.015625 -5.65625 L 3.859375 -5.65625 L 3.859375 -4.984375 L 1.578125 -4.984375 L 1.265625 -3.4375 C 1.609375 -3.675781 1.96875 -3.796875 2.34375 -3.796875 C 2.84375 -3.796875 3.265625 -3.625 3.609375 -3.28125 C 3.953125 -2.9375 4.125 -2.488281 4.125 -1.9375 C 4.125 -1.425781 3.972656 -0.976562 3.671875 -0.59375 C 3.304688 -0.132812 2.804688 0.09375 2.171875 0.09375 C 1.648438 0.09375 1.222656 -0.0507812 0.890625 -0.34375 C 0.566406 -0.632812 0.378906 -1.019531 0.328125 -1.5 Z M 0.328125 -1.5 "/>
</g>
<g id="glyph-1-3">
<path d="M 0.375 -4.984375 L 0.375 -5.65625 L 4.09375 -5.65625 L 4.09375 -5.109375 C 3.726562 -4.722656 3.363281 -4.207031 3 -3.5625 C 2.644531 -2.914062 2.367188 -2.253906 2.171875 -1.578125 C 2.035156 -1.097656 1.945312 -0.570312 1.90625 0 L 1.1875 0 C 1.1875 -0.445312 1.269531 -0.988281 1.4375 -1.625 C 1.613281 -2.269531 1.859375 -2.890625 2.171875 -3.484375 C 2.492188 -4.078125 2.832031 -4.578125 3.1875 -4.984375 Z M 0.375 -4.984375 "/>
</g>
<g id="glyph-1-4">
<path d="M 2.984375 0 L 2.28125 0 L 2.28125 -4.484375 C 2.113281 -4.316406 1.890625 -4.148438 1.609375 -3.984375 C 1.335938 -3.828125 1.09375 -3.710938 0.875 -3.640625 L 0.875 -4.3125 C 1.269531 -4.5 1.613281 -4.722656 1.90625 -4.984375 C 2.195312 -5.242188 2.40625 -5.5 2.53125 -5.75 L 2.984375 -5.75 Z M 2.984375 0 "/>
</g>
<g id="glyph-1-5">
<path d="M 0.65625 0 L 0.65625 -5.734375 L 4.515625 -5.734375 L 4.515625 -5.046875 L 1.421875 -5.046875 L 1.421875 -3.28125 L 4.109375 -3.28125 L 4.109375 -2.609375 L 1.421875 -2.609375 L 1.421875 0 Z M 0.65625 0 "/>
</g>
<g id="glyph-1-6">
<path d="M 0.515625 0 L 0.515625 -4.15625 L 1.15625 -4.15625 L 1.15625 -3.515625 C 1.3125 -3.816406 1.457031 -4.015625 1.59375 -4.109375 C 1.738281 -4.203125 1.890625 -4.25 2.046875 -4.25 C 2.285156 -4.25 2.53125 -4.171875 2.78125 -4.015625 L 2.53125 -3.359375 C 2.363281 -3.460938 2.191406 -3.515625 2.015625 -3.515625 C 1.859375 -3.515625 1.71875 -3.46875 1.59375 -3.375 C 1.476562 -3.28125 1.394531 -3.15625 1.34375 -3 C 1.257812 -2.75 1.21875 -2.472656 1.21875 -2.171875 L 1.21875 0 Z M 0.515625 0 "/>
</g>
<g id="glyph-1-7">
<path d="M 3.234375 -0.515625 C 2.972656 -0.296875 2.722656 -0.140625 2.484375 -0.046875 C 2.242188 0.0429688 1.984375 0.09375 1.703125 0.09375 C 1.253906 0.09375 0.90625 -0.015625 0.65625 -0.234375 C 0.414062 -0.460938 0.296875 -0.75 0.296875 -1.09375 C 0.296875 -1.300781 0.335938 -1.488281 0.421875 -1.65625 C 0.515625 -1.820312 0.632812 -1.953125 0.78125 -2.046875 C 0.9375 -2.148438 1.109375 -2.226562 1.296875 -2.28125 C 1.429688 -2.320312 1.640625 -2.359375 1.921875 -2.390625 C 2.492188 -2.460938 2.910156 -2.546875 3.171875 -2.640625 C 3.179688 -2.734375 3.1875 -2.789062 3.1875 -2.8125 C 3.1875 -3.101562 3.117188 -3.304688 2.984375 -3.421875 C 2.804688 -3.578125 2.539062 -3.65625 2.1875 -3.65625 C 1.851562 -3.65625 1.609375 -3.597656 1.453125 -3.484375 C 1.296875 -3.367188 1.175781 -3.164062 1.09375 -2.875 L 0.40625 -2.96875 C 0.46875 -3.257812 0.570312 -3.492188 0.71875 -3.671875 C 0.863281 -3.859375 1.070312 -4 1.34375 -4.09375 C 1.613281 -4.195312 1.925781 -4.25 2.28125 -4.25 C 2.632812 -4.25 2.921875 -4.207031 3.140625 -4.125 C 3.367188 -4.039062 3.535156 -3.929688 3.640625 -3.796875 C 3.742188 -3.671875 3.816406 -3.515625 3.859375 -3.328125 C 3.878906 -3.203125 3.890625 -2.984375 3.890625 -2.671875 L 3.890625 -1.734375 C 3.890625 -1.085938 3.90625 -0.675781 3.9375 -0.5 C 3.96875 -0.320312 4.023438 -0.15625 4.109375 0 L 3.375 0 C 3.300781 -0.144531 3.253906 -0.316406 3.234375 -0.515625 Z M 3.171875 -2.078125 C 2.921875 -1.972656 2.539062 -1.882812 2.03125 -1.8125 C 1.738281 -1.769531 1.53125 -1.722656 1.40625 -1.671875 C 1.289062 -1.617188 1.203125 -1.539062 1.140625 -1.4375 C 1.078125 -1.34375 1.046875 -1.234375 1.046875 -1.109375 C 1.046875 -0.921875 1.113281 -0.765625 1.25 -0.640625 C 1.394531 -0.515625 1.601562 -0.453125 1.875 -0.453125 C 2.144531 -0.453125 2.382812 -0.507812 2.59375 -0.625 C 2.8125 -0.75 2.96875 -0.914062 3.0625 -1.125 C 3.132812 -1.28125 3.171875 -1.515625 3.171875 -1.828125 Z M 3.171875 -2.078125 "/>
</g>
<g id="glyph-1-8">
<path d="M 3.25 0 L 3.25 -0.609375 C 2.925781 -0.140625 2.488281 0.09375 1.9375 0.09375 C 1.6875 0.09375 1.453125 0.0429688 1.234375 -0.046875 C 1.023438 -0.140625 0.867188 -0.253906 0.765625 -0.390625 C 0.671875 -0.535156 0.601562 -0.710938 0.5625 -0.921875 C 0.53125 -1.054688 0.515625 -1.273438 0.515625 -1.578125 L 0.515625 -4.15625 L 1.21875 -4.15625 L 1.21875 -1.84375 C 1.21875 -1.476562 1.234375 -1.234375 1.265625 -1.109375 C 1.304688 -0.921875 1.394531 -0.773438 1.53125 -0.671875 C 1.675781 -0.566406 1.859375 -0.515625 2.078125 -0.515625 C 2.285156 -0.515625 2.476562 -0.566406 2.65625 -0.671875 C 2.84375 -0.785156 2.972656 -0.929688 3.046875 -1.109375 C 3.128906 -1.296875 3.171875 -1.566406 3.171875 -1.921875 L 3.171875 -4.15625 L 3.875 -4.15625 L 3.875 0 Z M 3.25 0 "/>
</g>
<g id="glyph-1-9">
<path d="M 3.375 -1.34375 L 4.09375 -1.25 C 3.976562 -0.820312 3.765625 -0.488281 3.453125 -0.25 C 3.148438 -0.0195312 2.753906 0.09375 2.265625 0.09375 C 1.660156 0.09375 1.179688 -0.09375 0.828125 -0.46875 C 0.472656 -0.84375 0.296875 -1.367188 0.296875 -2.046875 C 0.296875 -2.742188 0.472656 -3.285156 0.828125 -3.671875 C 1.191406 -4.054688 1.660156 -4.25 2.234375 -4.25 C 2.785156 -4.25 3.238281 -4.054688 3.59375 -3.671875 C 3.945312 -3.296875 4.125 -2.765625 4.125 -2.078125 C 4.125 -2.035156 4.117188 -1.972656 4.109375 -1.890625 L 1.015625 -1.890625 C 1.046875 -1.441406 1.175781 -1.09375 1.40625 -0.84375 C 1.632812 -0.601562 1.925781 -0.484375 2.28125 -0.484375 C 2.53125 -0.484375 2.742188 -0.550781 2.921875 -0.6875 C 3.109375 -0.820312 3.257812 -1.039062 3.375 -1.34375 Z M 1.0625 -2.46875 L 3.375 -2.46875 C 3.34375 -2.820312 3.253906 -3.085938 3.109375 -3.265625 C 2.890625 -3.535156 2.597656 -3.671875 2.234375 -3.671875 C 1.910156 -3.671875 1.640625 -3.5625 1.421875 -3.34375 C 1.203125 -3.125 1.082031 -2.832031 1.0625 -2.46875 Z M 1.0625 -2.46875 "/>
</g>
<g id="glyph-1-10">
<path d="M 0.53125 0 L 0.53125 -4.15625 L 1.15625 -4.15625 L 1.15625 -3.5625 C 1.46875 -4.019531 1.910156 -4.25 2.484375 -4.25 C 2.734375 -4.25 2.960938 -4.203125 3.171875 -4.109375 C 3.378906 -4.015625 3.535156 -3.894531 3.640625 -3.75 C 3.742188 -3.601562 3.816406 -3.429688 3.859375 -3.234375 C 3.890625 -3.109375 3.90625 -2.878906 3.90625 -2.546875 L 3.90625 0 L 3.203125 0 L 3.203125 -2.53125 C 3.203125 -2.8125 3.171875 -3.019531 3.109375 -3.15625 C 3.054688 -3.300781 2.957031 -3.414062 2.8125 -3.5 C 2.675781 -3.59375 2.515625 -3.640625 2.328125 -3.640625 C 2.035156 -3.640625 1.78125 -3.539062 1.5625 -3.34375 C 1.34375 -3.15625 1.234375 -2.796875 1.234375 -2.265625 L 1.234375 0 Z M 0.53125 0 "/>
</g>
<g id="glyph-1-11">
<path d="M 0.59375 0 L 0.59375 -5.734375 L 1.734375 -5.734375 L 3.09375 -1.671875 C 3.21875 -1.296875 3.304688 -1.015625 3.359375 -0.828125 C 3.429688 -1.035156 3.535156 -1.34375 3.671875 -1.75 L 5.046875 -5.734375 L 6.0625 -5.734375 L 6.0625 0 L 5.328125 0 L 5.328125 -4.796875 L 3.671875 0 L 2.984375 0 L 1.328125 -4.875 L 1.328125 0 Z M 0.59375 0 "/>
</g>
<g id="glyph-2-0">
<path d="M 0 0.015625 L -7.15625 -2.734375 L -7.15625 -3.75 L 0 -6.6875 L 0 -5.609375 L -2.171875 -4.765625 L -2.171875 -1.78125 L 0 -0.984375 Z M -2.9375 -2.046875 L -2.9375 -4.484375 L -4.921875 -3.734375 C -5.523438 -3.503906 -6.019531 -3.332031 -6.40625 -3.21875 C -5.945312 -3.132812 -5.492188 -3.007812 -5.046875 -2.84375 Z M -2.9375 -2.046875 "/>
</g>
<g id="glyph-2-1">
<path d="M 0 -0.65625 L -5.1875 -0.65625 L -5.1875 -1.453125 L -4.453125 -1.453125 C -5.015625 -1.828125 -5.296875 -2.375 -5.296875 -3.09375 C -5.296875 -3.40625 -5.238281 -3.691406 -5.125 -3.953125 C -5.019531 -4.222656 -4.875 -4.421875 -4.6875 -4.546875 C -4.507812 -4.679688 -4.296875 -4.773438 -4.046875 -4.828125 C -3.878906 -4.859375 -3.59375 -4.875 -3.1875 -4.875 L 0 -4.875 L 0 -4 L -3.15625 -4 C -3.507812 -4 -3.773438 -3.960938 -3.953125 -3.890625 C -4.128906 -3.828125 -4.269531 -3.707031 -4.375 -3.53125 C -4.488281 -3.351562 -4.546875 -3.148438 -4.546875 -2.921875 C -4.546875 -2.546875 -4.425781 -2.21875 -4.1875 -1.9375 C -3.945312 -1.664062 -3.492188 -1.53125 -2.828125 -1.53125 L 0 -1.53125 Z M 0 -0.65625 "/>
</g>
<g id="glyph-2-2">
<path d="M 0 -0.203125 L -0.71875 -0.203125 L -4.5 -3.5 C -4.476562 -3.125 -4.46875 -2.789062 -4.46875 -2.5 L -4.46875 -0.390625 L -5.1875 -0.390625 L -5.1875 -4.625 L -4.609375 -4.625 L -1.3125 -1.828125 L -0.71875 -1.28125 C -0.738281 -1.675781 -0.75 -2.046875 -0.75 -2.390625 L -0.75 -4.78125 L 0 -4.78125 Z M 0 -0.203125 "/>
</g>
<g id="glyph-2-3">
<path d="M -0.640625 -4.046875 C -0.359375 -3.722656 -0.160156 -3.410156 -0.046875 -3.109375 C 0.0664062 -2.804688 0.125 -2.484375 0.125 -2.140625 C 0.125 -1.566406 -0.015625 -1.125 -0.296875 -0.8125 C -0.578125 -0.507812 -0.9375 -0.359375 -1.375 -0.359375 C -1.625 -0.359375 -1.851562 -0.414062 -2.0625 -0.53125 C -2.269531 -0.644531 -2.4375 -0.796875 -2.5625 -0.984375 C -2.695312 -1.171875 -2.796875 -1.382812 -2.859375 -1.625 C -2.898438 -1.789062 -2.941406 -2.050781 -2.984375 -2.40625 C -3.066406 -3.113281 -3.171875 -3.632812 -3.296875 -3.96875 C -3.410156 -3.96875 -3.484375 -3.96875 -3.515625 -3.96875 C -3.878906 -3.96875 -4.132812 -3.882812 -4.28125 -3.71875 C -4.476562 -3.5 -4.578125 -3.164062 -4.578125 -2.71875 C -4.578125 -2.3125 -4.503906 -2.007812 -4.359375 -1.8125 C -4.210938 -1.613281 -3.957031 -1.46875 -3.59375 -1.375 L -3.703125 -0.515625 C -4.078125 -0.585938 -4.375 -0.710938 -4.59375 -0.890625 C -4.820312 -1.078125 -4.992188 -1.335938 -5.109375 -1.671875 C -5.234375 -2.015625 -5.296875 -2.410156 -5.296875 -2.859375 C -5.296875 -3.296875 -5.242188 -3.648438 -5.140625 -3.921875 C -5.035156 -4.203125 -4.90625 -4.40625 -4.75 -4.53125 C -4.59375 -4.664062 -4.394531 -4.757812 -4.15625 -4.8125 C -4.007812 -4.84375 -3.738281 -4.859375 -3.34375 -4.859375 L -2.171875 -4.859375 C -1.359375 -4.859375 -0.84375 -4.875 -0.625 -4.90625 C -0.40625 -4.945312 -0.195312 -5.023438 0 -5.140625 L 0 -4.21875 C -0.1875 -4.125 -0.398438 -4.066406 -0.640625 -4.046875 Z M -2.609375 -3.96875 C -2.472656 -3.644531 -2.359375 -3.164062 -2.265625 -2.53125 C -2.210938 -2.175781 -2.15625 -1.921875 -2.09375 -1.765625 C -2.03125 -1.617188 -1.9375 -1.503906 -1.8125 -1.421875 C -1.6875 -1.335938 -1.546875 -1.296875 -1.390625 -1.296875 C -1.160156 -1.296875 -0.96875 -1.382812 -0.8125 -1.5625 C -0.65625 -1.738281 -0.578125 -2 -0.578125 -2.34375 C -0.578125 -2.6875 -0.648438 -2.988281 -0.796875 -3.25 C -0.941406 -3.507812 -1.144531 -3.703125 -1.40625 -3.828125 C -1.601562 -3.921875 -1.894531 -3.96875 -2.28125 -3.96875 Z M -2.609375 -3.96875 "/>
</g>
<g id="glyph-2-4">
<path d="M 0 -0.65625 L -7.15625 -0.65625 L -7.15625 -1.53125 L -4.59375 -1.53125 C -5.0625 -1.945312 -5.296875 -2.46875 -5.296875 -3.09375 C -5.296875 -3.476562 -5.21875 -3.8125 -5.0625 -4.09375 C -4.914062 -4.375 -4.707031 -4.578125 -4.4375 -4.703125 C -4.175781 -4.828125 -3.789062 -4.890625 -3.28125 -4.890625 L 0 -4.890625 L 0 -4 L -3.28125 -4 C -3.726562 -4 -4.050781 -3.90625 -4.25 -3.71875 C -4.445312 -3.53125 -4.546875 -3.257812 -4.546875 -2.90625 C -4.546875 -2.644531 -4.476562 -2.398438 -4.34375 -2.171875 C -4.207031 -1.941406 -4.023438 -1.773438 -3.796875 -1.671875 C -3.566406 -1.578125 -3.25 -1.53125 -2.84375 -1.53125 L 0 -1.53125 Z M 0 -0.65625 "/>
</g>
<g id="glyph-2-5">
<path d="M 0 -0.640625 L -7.15625 -0.640625 L -7.15625 -1.515625 L 0 -1.515625 Z M 0 -0.640625 "/>
</g>
<g id="glyph-3-0">
<path d="M 4.953125 -3.375 L 4.953125 -4.375 L 8.578125 -4.390625 L 8.578125 -1.203125 C 8.023438 -0.753906 7.453125 -0.414062 6.859375 -0.1875 C 6.265625 0.0273438 5.65625 0.140625 5.03125 0.140625 C 4.1875 0.140625 3.414062 -0.0351562 2.71875 -0.390625 C 2.03125 -0.753906 1.507812 -1.273438 1.15625 -1.953125 C 0.8125 -2.640625 0.640625 -3.40625 0.640625 -4.25 C 0.640625 -5.09375 0.8125 -5.875 1.15625 -6.59375 C 1.507812 -7.320312 2.015625 -7.859375 2.671875 -8.203125 C 3.328125 -8.554688 4.082031 -8.734375 4.9375 -8.734375 C 5.5625 -8.734375 6.125 -8.632812 6.625 -8.4375 C 7.125 -8.238281 7.515625 -7.957031 7.796875 -7.59375 C 8.085938 -7.238281 8.304688 -6.769531 8.453125 -6.1875 L 7.4375 -5.90625 C 7.300781 -6.34375 7.132812 -6.6875 6.9375 -6.9375 C 6.75 -7.1875 6.476562 -7.382812 6.125 -7.53125 C 5.769531 -7.6875 5.378906 -7.765625 4.953125 -7.765625 C 4.429688 -7.765625 3.976562 -7.6875 3.59375 -7.53125 C 3.21875 -7.375 2.910156 -7.164062 2.671875 -6.90625 C 2.441406 -6.644531 2.265625 -6.359375 2.140625 -6.046875 C 1.921875 -5.515625 1.8125 -4.941406 1.8125 -4.328125 C 1.8125 -3.554688 1.941406 -2.910156 2.203125 -2.390625 C 2.472656 -1.878906 2.859375 -1.5 3.359375 -1.25 C 3.859375 -1 4.394531 -0.875 4.96875 -0.875 C 5.457031 -0.875 5.9375 -0.96875 6.40625 -1.15625 C 6.875 -1.351562 7.226562 -1.554688 7.46875 -1.765625 L 7.46875 -3.375 Z M 4.953125 -3.375 "/>
</g>
<g id="glyph-3-1">
<path d="M 5.046875 -2 L 6.140625 -1.875 C 5.972656 -1.238281 5.65625 -0.742188 5.1875 -0.390625 C 4.71875 -0.0351562 4.125 0.140625 3.40625 0.140625 C 2.5 0.140625 1.773438 -0.140625 1.234375 -0.703125 C 0.703125 -1.265625 0.4375 -2.050781 0.4375 -3.0625 C 0.4375 -4.101562 0.707031 -4.910156 1.25 -5.484375 C 1.789062 -6.066406 2.488281 -6.359375 3.34375 -6.359375 C 4.175781 -6.359375 4.851562 -6.078125 5.375 -5.515625 C 5.90625 -4.953125 6.171875 -4.15625 6.171875 -3.125 C 6.171875 -3.0625 6.171875 -2.96875 6.171875 -2.84375 L 1.53125 -2.84375 C 1.570312 -2.15625 1.765625 -1.628906 2.109375 -1.265625 C 2.453125 -0.910156 2.882812 -0.734375 3.40625 -0.734375 C 3.789062 -0.734375 4.117188 -0.832031 4.390625 -1.03125 C 4.671875 -1.238281 4.890625 -1.5625 5.046875 -2 Z M 1.59375 -3.703125 L 5.0625 -3.703125 C 5.019531 -4.234375 4.890625 -4.628906 4.671875 -4.890625 C 4.328125 -5.296875 3.890625 -5.5 3.359375 -5.5 C 2.867188 -5.5 2.457031 -5.335938 2.125 -5.015625 C 1.800781 -4.691406 1.625 -4.253906 1.59375 -3.703125 Z M 1.59375 -3.703125 "/>
</g>
<g id="glyph-3-2">
<path d="M 0.375 -1.859375 L 1.40625 -2.015625 C 1.46875 -1.597656 1.628906 -1.28125 1.890625 -1.0625 C 2.160156 -0.84375 2.539062 -0.734375 3.03125 -0.734375 C 3.507812 -0.734375 3.863281 -0.828125 4.09375 -1.015625 C 4.332031 -1.210938 4.453125 -1.445312 4.453125 -1.71875 C 4.453125 -1.957031 4.347656 -2.144531 4.140625 -2.28125 C 3.992188 -2.375 3.632812 -2.492188 3.0625 -2.640625 C 2.289062 -2.835938 1.753906 -3.003906 1.453125 -3.140625 C 1.160156 -3.285156 0.9375 -3.484375 0.78125 -3.734375 C 0.625 -3.984375 0.546875 -4.265625 0.546875 -4.578125 C 0.546875 -4.847656 0.609375 -5.101562 0.734375 -5.34375 C 0.859375 -5.582031 1.03125 -5.78125 1.25 -5.9375 C 1.414062 -6.050781 1.640625 -6.148438 1.921875 -6.234375 C 2.203125 -6.316406 2.507812 -6.359375 2.84375 -6.359375 C 3.320312 -6.359375 3.742188 -6.285156 4.109375 -6.140625 C 4.484375 -6.003906 4.757812 -5.816406 4.9375 -5.578125 C 5.113281 -5.335938 5.234375 -5.019531 5.296875 -4.625 L 4.265625 -4.484375 C 4.222656 -4.796875 4.085938 -5.039062 3.859375 -5.21875 C 3.640625 -5.40625 3.320312 -5.5 2.90625 -5.5 C 2.425781 -5.5 2.082031 -5.414062 1.875 -5.25 C 1.664062 -5.09375 1.5625 -4.90625 1.5625 -4.6875 C 1.5625 -4.550781 1.601562 -4.429688 1.6875 -4.328125 C 1.78125 -4.210938 1.914062 -4.117188 2.09375 -4.046875 C 2.195312 -4.003906 2.507812 -3.914062 3.03125 -3.78125 C 3.78125 -3.570312 4.300781 -3.40625 4.59375 -3.28125 C 4.882812 -3.15625 5.113281 -2.972656 5.28125 -2.734375 C 5.445312 -2.492188 5.53125 -2.191406 5.53125 -1.828125 C 5.53125 -1.472656 5.425781 -1.140625 5.21875 -0.828125 C 5.019531 -0.523438 4.726562 -0.285156 4.34375 -0.109375 C 3.957031 0.0546875 3.519531 0.140625 3.03125 0.140625 C 2.21875 0.140625 1.597656 -0.0234375 1.171875 -0.359375 C 0.753906 -0.703125 0.488281 -1.203125 0.375 -1.859375 Z M 0.375 -1.859375 "/>
</g>
<g id="glyph-3-3">
<path d="M 4.859375 -2.28125 L 5.890625 -2.140625 C 5.773438 -1.429688 5.484375 -0.875 5.015625 -0.46875 C 4.546875 -0.0625 3.972656 0.140625 3.296875 0.140625 C 2.441406 0.140625 1.753906 -0.132812 1.234375 -0.6875 C 0.722656 -1.25 0.46875 -2.050781 0.46875 -3.09375 C 0.46875 -3.757812 0.578125 -4.34375 0.796875 -4.84375 C 1.023438 -5.351562 1.363281 -5.734375 1.8125 -5.984375 C 2.269531 -6.234375 2.769531 -6.359375 3.3125 -6.359375 C 3.976562 -6.359375 4.523438 -6.1875 4.953125 -5.84375 C 5.390625 -5.507812 5.671875 -5.023438 5.796875 -4.390625 L 4.765625 -4.234375 C 4.671875 -4.648438 4.5 -4.960938 4.25 -5.171875 C 4 -5.390625 3.695312 -5.5 3.34375 -5.5 C 2.8125 -5.5 2.378906 -5.304688 2.046875 -4.921875 C 1.710938 -4.546875 1.546875 -3.945312 1.546875 -3.125 C 1.546875 -2.28125 1.707031 -1.671875 2.03125 -1.296875 C 2.351562 -0.921875 2.769531 -0.734375 3.28125 -0.734375 C 3.695312 -0.734375 4.039062 -0.859375 4.3125 -1.109375 C 4.59375 -1.359375 4.773438 -1.75 4.859375 -2.28125 Z M 4.859375 -2.28125 "/>
</g>
<g id="glyph-3-4">
<path d="M 0.796875 0 L 0.796875 -8.59375 L 1.84375 -8.59375 L 1.84375 -5.515625 C 2.332031 -6.078125 2.953125 -6.359375 3.703125 -6.359375 C 4.171875 -6.359375 4.570312 -6.265625 4.90625 -6.078125 C 5.25 -5.898438 5.492188 -5.648438 5.640625 -5.328125 C 5.785156 -5.015625 5.859375 -4.550781 5.859375 -3.9375 L 5.859375 0 L 4.8125 0 L 4.8125 -3.9375 C 4.8125 -4.46875 4.695312 -4.851562 4.46875 -5.09375 C 4.238281 -5.332031 3.914062 -5.453125 3.5 -5.453125 C 3.1875 -5.453125 2.890625 -5.367188 2.609375 -5.203125 C 2.335938 -5.046875 2.140625 -4.828125 2.015625 -4.546875 C 1.898438 -4.273438 1.84375 -3.894531 1.84375 -3.40625 L 1.84375 0 Z M 0.796875 0 "/>
</g>
<g id="glyph-3-5">
<path d="M 0.765625 0 L 0.765625 -8.59375 L 1.828125 -8.59375 L 1.828125 0 Z M 0.765625 0 "/>
</g>
<g id="glyph-3-6">
<path d="M 3.09375 -0.9375 L 3.25 -0.015625 C 2.945312 0.046875 2.679688 0.078125 2.453125 0.078125 C 2.066406 0.078125 1.769531 0.0195312 1.5625 -0.09375 C 1.351562 -0.21875 1.203125 -0.378906 1.109375 -0.578125 C 1.023438 -0.773438 0.984375 -1.191406 0.984375 -1.828125 L 0.984375 -5.40625 L 0.21875 -5.40625 L 0.21875 -6.21875 L 0.984375 -6.21875 L 0.984375 -7.765625 L 2.03125 -8.390625 L 2.03125 -6.21875 L 3.09375 -6.21875 L 3.09375 -5.40625 L 2.03125 -5.40625 L 2.03125 -1.765625 C 2.03125 -1.460938 2.046875 -1.269531 2.078125 -1.1875 C 2.117188 -1.101562 2.179688 -1.035156 2.265625 -0.984375 C 2.347656 -0.929688 2.46875 -0.90625 2.625 -0.90625 C 2.75 -0.90625 2.90625 -0.914062 3.09375 -0.9375 Z M 3.09375 -0.9375 "/>
</g>
<g id="glyph-3-7">
<path d="M 0.78125 0 L 0.78125 -6.21875 L 1.734375 -6.21875 L 1.734375 -5.28125 C 1.972656 -5.71875 2.191406 -6.003906 2.390625 -6.140625 C 2.597656 -6.285156 2.828125 -6.359375 3.078125 -6.359375 C 3.429688 -6.359375 3.789062 -6.25 4.15625 -6.03125 L 3.796875 -5.046875 C 3.535156 -5.203125 3.28125 -5.28125 3.03125 -5.28125 C 2.789062 -5.28125 2.578125 -5.207031 2.390625 -5.0625 C 2.210938 -4.925781 2.085938 -4.734375 2.015625 -4.484375 C 1.890625 -4.109375 1.828125 -3.703125 1.828125 -3.265625 L 1.828125 0 Z M 0.78125 0 "/>
</g>
<g id="glyph-3-8">
<path d="M 2.515625 0 L 0.15625 -6.21875 L 1.265625 -6.21875 L 2.609375 -2.5 C 2.742188 -2.09375 2.875 -1.675781 3 -1.25 C 3.09375 -1.570312 3.222656 -1.960938 3.390625 -2.421875 L 4.78125 -6.21875 L 5.859375 -6.21875 L 3.5 0 Z M 2.515625 0 "/>
</g>
<g id="glyph-3-9">
<path d="M 0.796875 -7.375 L 0.796875 -8.59375 L 1.859375 -8.59375 L 1.859375 -7.375 Z M 0.796875 0 L 0.796875 -6.21875 L 1.859375 -6.21875 L 1.859375 0 Z M 0.796875 0 "/>
</g>
<g id="glyph-3-10">
<path d="M 4.875 0 L 4.875 -0.921875 C 4.382812 -0.210938 3.722656 0.140625 2.890625 0.140625 C 2.523438 0.140625 2.179688 0.0703125 1.859375 -0.0625 C 1.546875 -0.207031 1.3125 -0.382812 1.15625 -0.59375 C 1 -0.8125 0.890625 -1.078125 0.828125 -1.390625 C 0.785156 -1.585938 0.765625 -1.914062 0.765625 -2.375 L 0.765625 -6.21875 L 1.828125 -6.21875 L 1.828125 -2.765625 C 1.828125 -2.222656 1.847656 -1.851562 1.890625 -1.65625 C 1.953125 -1.382812 2.085938 -1.164062 2.296875 -1 C 2.515625 -0.84375 2.785156 -0.765625 3.109375 -0.765625 C 3.421875 -0.765625 3.710938 -0.84375 3.984375 -1 C 4.265625 -1.164062 4.460938 -1.390625 4.578125 -1.671875 C 4.703125 -1.953125 4.765625 -2.359375 4.765625 -2.890625 L 4.765625 -6.21875 L 5.8125 -6.21875 L 5.8125 0 Z M 4.875 0 "/>
</g>
<g id="glyph-3-11">
<path d="M 0.796875 0 L 0.796875 -6.21875 L 1.734375 -6.21875 L 1.734375 -5.34375 C 2.191406 -6.019531 2.851562 -6.359375 3.71875 -6.359375 C 4.09375 -6.359375 4.4375 -6.289062 4.75 -6.15625 C 5.070312 -6.019531 5.3125 -5.84375 5.46875 -5.625 C 5.625 -5.40625 5.734375 -5.148438 5.796875 -4.859375 C 5.828125 -4.660156 5.84375 -4.316406 5.84375 -3.828125 L 5.84375 0 L 4.796875 0 L 4.796875 -3.78125 C 4.796875 -4.21875 4.753906 -4.539062 4.671875 -4.75 C 4.585938 -4.957031 4.441406 -5.125 4.234375 -5.25 C 4.023438 -5.382812 3.78125 -5.453125 3.5 -5.453125 C 3.050781 -5.453125 2.660156 -5.304688 2.328125 -5.015625 C 2.003906 -4.734375 1.84375 -4.195312 1.84375 -3.40625 L 1.84375 0 Z M 0.796875 0 "/>
</g>
<g id="glyph-3-12">
<path d="M 0.59375 0.515625 L 1.625 0.671875 C 1.664062 0.984375 1.785156 1.210938 1.984375 1.359375 C 2.242188 1.554688 2.597656 1.65625 3.046875 1.65625 C 3.535156 1.65625 3.910156 1.554688 4.171875 1.359375 C 4.441406 1.160156 4.625 0.890625 4.71875 0.546875 C 4.78125 0.328125 4.804688 -0.125 4.796875 -0.8125 C 4.335938 -0.269531 3.765625 0 3.078125 0 C 2.222656 0 1.5625 -0.304688 1.09375 -0.921875 C 0.625 -1.546875 0.390625 -2.285156 0.390625 -3.140625 C 0.390625 -3.734375 0.492188 -4.28125 0.703125 -4.78125 C 0.921875 -5.289062 1.234375 -5.679688 1.640625 -5.953125 C 2.046875 -6.222656 2.523438 -6.359375 3.078125 -6.359375 C 3.816406 -6.359375 4.425781 -6.0625 4.90625 -5.46875 L 4.90625 -6.21875 L 5.875 -6.21875 L 5.875 -0.84375 C 5.875 0.121094 5.773438 0.8125 5.578125 1.21875 C 5.378906 1.625 5.066406 1.941406 4.640625 2.171875 C 4.210938 2.410156 3.6875 2.53125 3.0625 2.53125 C 2.320312 2.53125 1.722656 2.363281 1.265625 2.03125 C 0.804688 1.695312 0.582031 1.191406 0.59375 0.515625 Z M 1.46875 -3.21875 C 1.46875 -2.40625 1.628906 -1.8125 1.953125 -1.4375 C 2.273438 -1.0625 2.679688 -0.875 3.171875 -0.875 C 3.660156 -0.875 4.066406 -1.0625 4.390625 -1.4375 C 4.722656 -1.8125 4.890625 -2.394531 4.890625 -3.1875 C 4.890625 -3.945312 4.71875 -4.519531 4.375 -4.90625 C 4.039062 -5.289062 3.632812 -5.484375 3.15625 -5.484375 C 2.6875 -5.484375 2.285156 -5.289062 1.953125 -4.90625 C 1.628906 -4.53125 1.46875 -3.96875 1.46875 -3.21875 Z M 1.46875 -3.21875 "/>
</g>
</g>
<clipPath id="clip-0">
<path clip-rule="nonzero" d="M 34.566406 131 L 420.019531 131 L 420.019531 132 L 34.566406 132 Z M 34.566406 131 "/>
</clipPath>
<clipPath id="clip-1">
<path clip-rule="nonzero" d="M 34.566406 101 L 420.019531 101 L 420.019531 102 L 34.566406 102 Z M 34.566406 101 "/>
</clipPath>
<clipPath id="clip-2">
<path clip-rule="nonzero" d="M 34.566406 71 L 420.019531 71 L 420.019531 72 L 34.566406 72 Z M 34.566406 71 "/>
</clipPath>
<clipPath id="clip-3">
<path clip-rule="nonzero" d="M 34.566406 41 L 420.019531 41 L 420.019531 43 L 34.566406 43 Z M 34.566406 41 "/>
</clipPath>
<clipPath id="clip-4">
<path clip-rule="nonzero" d="M 34.566406 145 L 420.019531 145 L 420.019531 147 L 34.566406 147 Z M 34.566406 145 "/>
</clipPath>
<clipPath id="clip-5">
<path clip-rule="nonzero" d="M 34.566406 115 L 420.019531 115 L 420.019531 117 L 34.566406 117 Z M 34.566406 115 "/>
</clipPath>
<clipPath id="clip-6">
<path clip-rule="nonzero" d="M 34.566406 86 L 420.019531 86 L 420.019531 88 L 34.566406 88 Z M 34.566406 86 "/>
</clipPath>
<clipPath id="clip-7">
<path clip-rule="nonzero" d="M 34.566406 56 L 420.019531 56 L 420.019531 58 L 34.566406 58 Z M 34.566406 56 "/>
</clipPath>
<clipPath id="clip-8">
<path clip-rule="nonzero" d="M 34.566406 26 L 420.019531 26 L 420.019531 28 L 34.566406 28 Z M 34.566406 26 "/>
</clipPath>
<clipPath id="clip-9">
<path clip-rule="nonzero" d="M 139 21.078125 L 141 21.078125 L 141 152.125 L 139 152.125 Z M 139 21.078125 "/>
</clipPath>
<clipPath id="clip-10">
<path clip-rule="nonzero" d="M 314 21.078125 L 316 21.078125 L 316 152.125 L 314 152.125 Z M 314 21.078125 "/>
</clipPath>
</defs>
<rect x="-42.5" y="-16.9" width="510" height="202.8" fill="rgb(100%, 100%, 100%)" fill-opacity="1"/>
<rect x="-42.5" y="-16.9" width="510" height="202.8" fill="rgb(100%, 100%, 100%)" fill-opacity="1"/>
<g clip-path="url(#clip-0)">
<path fill="none" stroke-width="0.48499" stroke-linecap="butt" stroke-linejoin="round" stroke="rgb(92.156863%, 92.156863%, 92.156863%)" stroke-opacity="1" stroke-miterlimit="10" d="M 34.566406 131.277344 L 420.019531 131.277344 "/>
</g>
<g clip-path="url(#clip-1)">
<path fill="none" stroke-width="0.48499" stroke-linecap="butt" stroke-linejoin="round" stroke="rgb(92.156863%, 92.156863%, 92.156863%)" stroke-opacity="1" stroke-miterlimit="10" d="M 34.566406 101.492188 L 420.019531 101.492188 "/>
</g>
<g clip-path="url(#clip-2)">
<path fill="none" stroke-width="0.48499" stroke-linecap="butt" stroke-linejoin="round" stroke="rgb(92.156863%, 92.156863%, 92.156863%)" stroke-opacity="1" stroke-miterlimit="10" d="M 34.566406 71.710938 L 420.019531 71.710938 "/>
</g>
<g clip-path="url(#clip-3)">
<path fill="none" stroke-width="0.48499" stroke-linecap="butt" stroke-linejoin="round" stroke="rgb(92.156863%, 92.156863%, 92.156863%)" stroke-opacity="1" stroke-miterlimit="10" d="M 34.566406 41.925781 L 420.019531 41.925781 "/>
</g>
<g clip-path="url(#clip-4)">
<path fill="none" stroke-width="0.96998" stroke-linecap="butt" stroke-linejoin="round" stroke="rgb(92.156863%, 92.156863%, 92.156863%)" stroke-opacity="1" stroke-miterlimit="10" d="M 34.566406 146.167969 L 420.019531 146.167969 "/>
</g>
<g clip-path="url(#clip-5)">
<path fill="none" stroke-width="0.96998" stroke-linecap="butt" stroke-linejoin="round" stroke="rgb(92.156863%, 92.156863%, 92.156863%)" stroke-opacity="1" stroke-miterlimit="10" d="M 34.566406 116.386719 L 420.019531 116.386719 "/>
</g>
<g clip-path="url(#clip-6)">
<path fill="none" stroke-width="0.96998" stroke-linecap="butt" stroke-linejoin="round" stroke="rgb(92.156863%, 92.156863%, 92.156863%)" stroke-opacity="1" stroke-miterlimit="10" d="M 34.566406 86.601562 L 420.019531 86.601562 "/>
</g>
<g clip-path="url(#clip-7)">
<path fill="none" stroke-width="0.96998" stroke-linecap="butt" stroke-linejoin="round" stroke="rgb(92.156863%, 92.156863%, 92.156863%)" stroke-opacity="1" stroke-miterlimit="10" d="M 34.566406 56.816406 L 420.019531 56.816406 "/>
</g>
<g clip-path="url(#clip-8)">
<path fill="none" stroke-width="0.96998" stroke-linecap="butt" stroke-linejoin="round" stroke="rgb(92.156863%, 92.156863%, 92.156863%)" stroke-opacity="1" stroke-miterlimit="10" d="M 34.566406 27.035156 L 420.019531 27.035156 "/>
</g>
<g clip-path="url(#clip-9)">
<path fill="none" stroke-width="0.96998" stroke-linecap="butt" stroke-linejoin="round" stroke="rgb(92.156863%, 92.156863%, 92.156863%)" stroke-opacity="1" stroke-miterlimit="10" d="M 139.6875 152.125 L 139.6875 21.078125 "/>
</g>
<g clip-path="url(#clip-10)">
<path fill="none" stroke-width="0.96998" stroke-linecap="butt" stroke-linejoin="round" stroke="rgb(92.156863%, 92.156863%, 92.156863%)" stroke-opacity="1" stroke-miterlimit="10" d="M 314.894531 152.125 L 314.894531 21.078125 "/>
</g>
<path fill-rule="nonzero" fill="rgb(89.411765%, 10.196078%, 10.980392%)" fill-opacity="1" d="M 82.746094 146.167969 L 196.628906 146.167969 L 196.628906 27.035156 L 82.746094 27.035156 Z M 82.746094 146.167969 "/>
<path fill-rule="nonzero" fill="rgb(21.568627%, 49.411765%, 72.156863%)" fill-opacity="1" d="M 257.953125 146.167969 L 371.835938 146.167969 L 371.835938 105.664062 L 257.953125 105.664062 Z M 257.953125 146.167969 "/>
<g fill="rgb(0%, 0%, 0%)" fill-opacity="1">
<use xlink:href="#glyph-0-0" x="309.332031" y="80.484375"/>
<use xlink:href="#glyph-0-1" x="314.893555" y="80.484375"/>
</g>
<g fill="rgb(0%, 0%, 0%)" fill-opacity="1">
<use xlink:href="#glyph-0-2" x="297.386719" y="94.882812"/>
<use xlink:href="#glyph-0-3" x="300.716797" y="94.882812"/>
<use xlink:href="#glyph-0-4" x="306.27832" y="94.882812"/>
<use xlink:href="#glyph-0-5" x="311.839844" y="94.882812"/>
<use xlink:href="#glyph-0-1" x="314.618164" y="94.882812"/>
<use xlink:href="#glyph-0-6" x="320.179688" y="94.882812"/>
<use xlink:href="#glyph-0-7" x="329.071289" y="94.882812"/>
</g>
<g fill="rgb(30.196078%, 30.196078%, 30.196078%)" fill-opacity="1">
<use xlink:href="#glyph-1-0" x="25.632812" y="149.03125"/>
</g>
<g fill="rgb(30.196078%, 30.196078%, 30.196078%)" fill-opacity="1">
<use xlink:href="#glyph-1-1" x="21.183594" y="119.25"/>
<use xlink:href="#glyph-1-2" x="25.632812" y="119.25"/>
</g>
<g fill="rgb(30.196078%, 30.196078%, 30.196078%)" fill-opacity="1">
<use xlink:href="#glyph-1-2" x="21.183594" y="89.464844"/>
<use xlink:href="#glyph-1-0" x="25.632812" y="89.464844"/>
</g>
<g fill="rgb(30.196078%, 30.196078%, 30.196078%)" fill-opacity="1">
<use xlink:href="#glyph-1-3" x="21.183594" y="59.679688"/>
<use xlink:href="#glyph-1-2" x="25.632812" y="59.679688"/>
</g>
<g fill="rgb(30.196078%, 30.196078%, 30.196078%)" fill-opacity="1">
<use xlink:href="#glyph-1-4" x="16.734375" y="29.898438"/>
<use xlink:href="#glyph-1-0" x="21.183594" y="29.898438"/>
<use xlink:href="#glyph-1-0" x="25.632812" y="29.898438"/>
</g>
<g fill="rgb(30.196078%, 30.196078%, 30.196078%)" fill-opacity="1">
<use xlink:href="#glyph-1-5" x="127.015625" y="162.335938"/>
<use xlink:href="#glyph-1-6" x="131.902344" y="162.335938"/>
<use xlink:href="#glyph-1-7" x="134.566406" y="162.335938"/>
<use xlink:href="#glyph-1-8" x="139.015625" y="162.335938"/>
<use xlink:href="#glyph-1-9" x="143.464844" y="162.335938"/>
<use xlink:href="#glyph-1-10" x="147.914062" y="162.335938"/>
</g>
<g fill="rgb(30.196078%, 30.196078%, 30.196078%)" fill-opacity="1">
<use xlink:href="#glyph-1-11" x="299.105469" y="162.335938"/>
<use xlink:href="#glyph-1-7" x="305.769531" y="162.335938"/>
<use xlink:href="#glyph-1-9" x="310.21875" y="162.335938"/>
<use xlink:href="#glyph-1-10" x="314.667969" y="162.335938"/>
<use xlink:href="#glyph-1-10" x="319.117188" y="162.335938"/>
<use xlink:href="#glyph-1-9" x="323.566406" y="162.335938"/>
<use xlink:href="#glyph-1-6" x="328.015625" y="162.335938"/>
</g>
<g fill="rgb(0%, 0%, 0%)" fill-opacity="1">
<use xlink:href="#glyph-2-0" x="12.140625" y="101.890625"/>
<use xlink:href="#glyph-2-1" x="12.140625" y="95.220703"/>
<use xlink:href="#glyph-2-2" x="12.140625" y="89.65918"/>
<use xlink:href="#glyph-2-3" x="12.140625" y="84.65918"/>
<use xlink:href="#glyph-2-4" x="12.140625" y="79.097656"/>
<use xlink:href="#glyph-2-5" x="12.140625" y="73.536133"/>
</g>
<g fill="rgb(0%, 0%, 0%)" fill-opacity="1">
<use xlink:href="#glyph-3-0" x="34.566406" y="13.570312"/>
<use xlink:href="#glyph-3-1" x="43.900391" y="13.570312"/>
<use xlink:href="#glyph-3-2" x="50.574219" y="13.570312"/>
<use xlink:href="#glyph-3-3" x="56.574219" y="13.570312"/>
<use xlink:href="#glyph-3-4" x="62.574219" y="13.570312"/>
<use xlink:href="#glyph-3-5" x="69.248047" y="13.570312"/>
<use xlink:href="#glyph-3-1" x="71.914062" y="13.570312"/>
<use xlink:href="#glyph-3-3" x="78.587891" y="13.570312"/>
<use xlink:href="#glyph-3-4" x="84.587891" y="13.570312"/>
<use xlink:href="#glyph-3-6" x="91.261719" y="13.570312"/>
<use xlink:href="#glyph-3-1" x="94.595703" y="13.570312"/>
<use xlink:href="#glyph-3-7" x="101.269531" y="13.570312"/>
<use xlink:href="#glyph-3-8" x="105.265625" y="13.570312"/>
<use xlink:href="#glyph-3-1" x="111.265625" y="13.570312"/>
<use xlink:href="#glyph-3-7" x="117.939453" y="13.570312"/>
<use xlink:href="#glyph-3-6" x="121.935547" y="13.570312"/>
<use xlink:href="#glyph-3-1" x="125.269531" y="13.570312"/>
<use xlink:href="#glyph-3-9" x="131.943359" y="13.570312"/>
<use xlink:href="#glyph-3-5" x="134.609375" y="13.570312"/>
<use xlink:href="#glyph-3-10" x="137.275391" y="13.570312"/>
<use xlink:href="#glyph-3-11" x="143.949219" y="13.570312"/>
<use xlink:href="#glyph-3-12" x="150.623047" y="13.570312"/>
</g>
</svg>
